<svg width="3160" height="348" xmlns="http://www.w3.org/2000/svg" xmlns:xlink="http://www.w3.org/1999/xlink" xml:space="preserve" overflow="hidden"><g transform="translate(-895 -1087)"><path d="M933.368 1187.4 1020.54 1187.4 1020.54 1215.44 1012.64 1215.44C1011.46 1210.82 1010.3 1207.17 1009.14 1204.48 1007.99 1201.8 1006.76 1199.76 1005.47 1198.36 1004.19 1196.96 1002.8 1195.97 1001.33 1195.38 999.848 1194.79 997.633 1194.49 994.679 1194.49L984.447 1194.49 984.447 1276.99C984.447 1280.16 984.621 1282.69 984.97 1284.57 985.32 1286.45 985.857 1287.94 986.582 1289.04 987.307 1290.14 988.287 1291 989.522 1291.62 990.758 1292.23 992.691 1292.84 995.323 1293.43L995.323 1297.38 958.504 1297.38 958.504 1293.43C960.116 1293.05 961.539 1292.65 962.774 1292.22 964.01 1291.79 965.017 1291.27 965.796 1290.65 966.574 1290.03 967.219 1289.24 967.729 1288.27 968.239 1287.31 968.642 1285.99 968.938 1284.32 969.233 1282.66 969.381 1280.22 969.381 1276.99L969.381 1194.49 959.229 1194.49C956.705 1194.49 954.624 1194.74 952.986 1195.22 951.347 1195.7 949.83 1196.71 948.434 1198.24 947.037 1199.77 945.761 1201.95 944.607 1204.77 943.452 1207.59 942.364 1211.14 941.344 1215.44L933.368 1215.44Z" fill="#FF0000" fill-rule="evenodd"/><text fill="#000000" fill-opacity="0" font-family="Arial,Arial_MSFontService,sans-serif" font-size="109.973" x="933.368" y="1283.63">T</text><path d="M1083.86 1278.28 1183.11 1278.28 1183.11 1289 1083.86 1289ZM1083.86 1244.85 1183.11 1244.85 1183.11 1255.56 1083.86 1255.56ZM1083.86 1211.41 1183.11 1211.41 1183.11 1222.13 1083.86 1222.13Z" fill-rule="evenodd"/><text fill="#000000" fill-opacity="0" font-family="Arial,Arial_MSFontService,sans-serif" font-size="77.5854" x="1083.86" y="1279.3">≡</text><text fill="#FF0000" font-family="Georgia,Georgia_MSFontService,sans-serif" font-weight="400" font-size="165" transform="matrix(1 0 0 1 1234.56 1297)">total amount of time to get to school</text></g></svg>