<svg width="3761" height="826" xmlns="http://www.w3.org/2000/svg" xmlns:xlink="http://www.w3.org/1999/xlink" xml:space="preserve" overflow="hidden"><g transform="translate(-387 -807)"><path d="M933.368 1181.4 1020.54 1181.4 1020.54 1209.44 1012.64 1209.44C1011.46 1204.82 1010.3 1201.17 1009.14 1198.48 1007.99 1195.79 1006.76 1193.75 1005.47 1192.36 1004.19 1190.96 1002.8 1189.97 1001.33 1189.38 999.848 1188.78 997.633 1188.49 994.679 1188.49L984.447 1188.49 984.447 1270.99C984.447 1274.16 984.621 1276.68 984.97 1278.56 985.32 1280.44 985.857 1281.93 986.582 1283.03 987.307 1284.14 988.287 1284.99 989.522 1285.61 990.758 1286.23 992.691 1286.83 995.323 1287.42L995.323 1291.37 958.504 1291.37 958.504 1287.42C960.116 1287.05 961.539 1286.65 962.774 1286.22 964.01 1285.79 965.017 1285.26 965.796 1284.65 966.574 1284.03 967.219 1283.24 967.729 1282.27 968.239 1281.3 968.642 1279.99 968.938 1278.32 969.233 1276.66 969.381 1274.21 969.381 1270.99L969.381 1188.49 959.229 1188.49C956.705 1188.49 954.624 1188.73 952.986 1189.21 951.347 1189.7 949.83 1190.7 948.434 1192.24 947.037 1193.77 945.761 1195.94 944.607 1198.76 943.452 1201.58 942.364 1205.14 941.344 1209.44L933.368 1209.44Z" fill="#FF0000" fill-rule="evenodd"/><text fill="#000000" fill-opacity="0" font-family="Arial,Arial_MSFontService,sans-serif" font-size="109.973" x="933.368" y="1277.63">T</text><path d="M1089.26 1174.95 1091.44 1181.16C1078.87 1185.29 1069.57 1193.36 1063.52 1205.37 1057.48 1217.37 1054.46 1232.45 1054.46 1250.61 1054.46 1269.4 1057.48 1284.9 1063.52 1297.09 1069.57 1309.29 1078.79 1317.45 1091.2 1321.58L1089.26 1327.79C1073.53 1323.65 1061.47 1314.75 1053.09 1301.08 1044.71 1287.41 1040.52 1270.85 1040.52 1251.41 1040.52 1232.02 1044.72 1215.47 1053.13 1201.74 1061.54 1188.02 1073.58 1179.09 1089.26 1174.95Z" fill="#00B0F0" fill-rule="evenodd"/><text fill="#000000" fill-opacity="0" font-family="Arial,Arial_MSFontService,sans-serif" font-size="152.834" x="1040.52" y="1308.68">(</text><path d="M1098.15 1214.35 1129.73 1214.35 1129.73 1218.3C1125.49 1218.94 1123.37 1220.61 1123.37 1223.29 1123.37 1224.53 1123.65 1225.76 1124.22 1227 1124.78 1228.24 1125.65 1229.6 1126.83 1231.11L1136.66 1244.89 1147.14 1231.59C1148.27 1230.14 1149.18 1228.73 1149.88 1227.36 1150.57 1225.99 1150.92 1224.58 1150.92 1223.13 1150.92 1221.9 1150.47 1220.88 1149.55 1220.07 1148.64 1219.27 1147.22 1218.67 1145.28 1218.3L1145.28 1214.35 1171.63 1214.35 1171.63 1218.3C1169.59 1218.89 1167.51 1220.04 1165.39 1221.76 1163.26 1223.48 1160.67 1226.25 1157.61 1230.06L1140.93 1250.53 1159.3 1275.26C1161.93 1278.8 1164.3 1281.52 1166.39 1283.4 1168.49 1285.28 1170.58 1286.62 1172.68 1287.42L1172.68 1291.37 1140.29 1291.37 1140.29 1287.42C1144.75 1286.89 1146.98 1285.22 1146.98 1282.43 1146.98 1281.3 1146.79 1280.23 1146.41 1279.21 1146.04 1278.19 1145.34 1277 1144.32 1275.66L1132.64 1259.39 1120.23 1275.5C1119.31 1276.68 1118.6 1277.77 1118.09 1278.76 1117.58 1279.76 1117.33 1280.87 1117.33 1282.11 1117.33 1283.56 1117.82 1284.75 1118.82 1285.69 1119.81 1286.63 1121.38 1287.21 1123.53 1287.42L1123.53 1291.37 1096.62 1291.37 1096.62 1287.42C1098.39 1286.78 1099.99 1285.97 1101.42 1285.01 1102.84 1284.04 1104.29 1282.79 1105.77 1281.26 1107.24 1279.73 1109.19 1277.49 1111.61 1274.53L1128.37 1253.75 1111.2 1230.22C1108.84 1227 1106.96 1224.66 1105.56 1223.21 1104.17 1221.76 1102.88 1220.66 1101.7 1219.91 1100.52 1219.16 1099.33 1218.62 1098.15 1218.3Z" fill="#00B0F0" fill-rule="evenodd"/><text fill="#000000" fill-opacity="0" font-family="Arial,Arial_MSFontService,sans-serif" font-size="77.0215" x="1096.62" y="1281.74">x</text><path d="M1179.64 1174.95C1195.32 1179.09 1207.37 1188.02 1215.78 1201.74 1224.18 1215.47 1228.38 1232.02 1228.38 1251.41 1228.38 1270.85 1224.19 1287.41 1215.82 1301.08 1207.44 1314.75 1195.38 1323.65 1179.64 1327.79L1177.71 1321.58C1190.11 1317.45 1199.34 1309.29 1205.38 1297.09 1211.42 1284.9 1214.45 1269.4 1214.45 1250.61 1214.45 1232.45 1211.44 1217.37 1205.42 1205.37 1199.41 1193.36 1190.09 1185.29 1177.47 1181.16Z" fill="#00B0F0" fill-rule="evenodd"/><text fill="#000000" fill-opacity="0" font-family="Arial,Arial_MSFontService,sans-serif" font-size="152.834" x="1177.47" y="1308.68">)</text><path d="M1300.99 1272.28 1400.25 1272.28 1400.25 1282.99 1300.99 1282.99ZM1300.99 1238.84 1400.25 1238.84 1400.25 1249.56 1300.99 1249.56ZM1300.99 1205.41 1400.25 1205.41 1400.25 1216.12 1300.99 1216.12Z" fill-rule="evenodd"/><text fill="#000000" fill-opacity="0" font-family="Arial,Arial_MSFontService,sans-serif" font-size="77.5854" x="1300.99" y="1273.3">≡</text><text fill="#FF0000" font-family="Cambria,Cambria_MSFontService,sans-serif" font-weight="400" font-size="165" transform="matrix(1 0 0 1 1445.97 1291)">total amount of time to get to school</text><text fill="#00B0F0" font-family="Cambria,Cambria_MSFontService,sans-serif" font-weight="400" font-size="165" transform="matrix(1 0 0 1 3978.51 1291)">, </text><text fill="#00B0F0" font-family="Cambria,Cambria_MSFontService,sans-serif" font-weight="400" font-size="165" transform="matrix(1 0 0 1 1453.99 1495)">a function of the design variables</text><path d="M901 1156C901 1117.89 906.148 1087 912.5 1087L1072 1087C1078.35 1087 1083.5 1056.11 1083.5 1018 1083.5 1056.11 1088.65 1087 1095 1087L1254.5 1087C1260.85 1087 1266 1117.89 1266 1156" stroke="#000000" stroke-width="13.75" stroke-miterlimit="8" fill="none" fill-rule="evenodd"/><text font-family="Cambria,Cambria_MSFontService,sans-serif" font-weight="700" font-size="128" transform="matrix(1 0 0 1 534.927 971)">Objective Function</text></g></svg>