<svg width="4730" height="1101" xmlns="http://www.w3.org/2000/svg" xmlns:xlink="http://www.w3.org/1999/xlink" xml:space="preserve" overflow="hidden"><g transform="translate(-117 -760)"><path d="M519.743 1161.65 524.658 1161.65 524.658 1219.26C524.658 1223.88 524.872 1227.09 525.302 1228.89 525.732 1230.69 526.551 1232.06 527.759 1233 528.968 1233.94 530.942 1234.75 533.681 1235.45L533.681 1239.4 502.099 1239.4 502.099 1235.45C504.194 1234.81 505.684 1234.24 506.57 1233.76 507.457 1233.28 508.209 1232.61 508.826 1231.75 509.444 1230.89 509.927 1229.57 510.277 1227.8 510.626 1226.03 510.8 1223.26 510.8 1219.5L510.8 1184.37C510.8 1180.94 510.747 1178.17 510.639 1176.08 510.532 1173.98 510.156 1172.3 509.511 1171.04 508.867 1169.78 507.886 1168.84 506.57 1168.22 505.255 1167.6 503.388 1167.08 500.971 1166.65L500.971 1162.38ZM594.956 1161.09C597.856 1161.09 600.447 1161.43 602.73 1162.1 605.013 1162.77 607.027 1163.8 608.773 1165.2 610.518 1166.6 611.955 1168.33 613.083 1170.4 614.211 1172.46 615.057 1174.95 615.621 1177.85 616.185 1180.75 616.467 1184.43 616.467 1188.89L616.467 1219.26C616.467 1222.96 616.574 1225.65 616.789 1227.32 617.004 1228.98 617.38 1230.27 617.917 1231.18 618.454 1232.1 619.233 1232.86 620.253 1233.48 621.274 1234.1 623.046 1234.75 625.571 1235.45L625.571 1239.4 593.828 1239.4 593.828 1235.45C595.922 1234.81 597.426 1234.24 598.339 1233.76 599.252 1233.28 600.018 1232.61 600.635 1231.75 601.253 1230.89 601.737 1229.56 602.086 1227.76 602.435 1225.96 602.609 1223.23 602.609 1219.58L602.609 1198.47C602.609 1194.71 602.502 1191.3 602.287 1188.24 602.072 1185.18 601.71 1182.67 601.199 1180.71 600.689 1178.75 600.071 1177.22 599.346 1176.12 598.621 1175.01 597.762 1174.07 596.768 1173.3 595.775 1172.52 594.633 1171.9 593.344 1171.44 592.055 1170.99 590.363 1170.76 588.268 1170.76 586.174 1170.76 584.186 1171.17 582.307 1172.01 580.427 1172.84 578.359 1174.28 576.103 1176.32 573.847 1178.36 572.209 1180.37 571.188 1182.36 570.168 1184.35 569.658 1186.63 569.658 1189.21L569.658 1219.26C569.658 1223.88 569.872 1227.09 570.302 1228.89 570.732 1230.69 571.551 1232.06 572.759 1233 573.968 1233.94 575.942 1234.75 578.681 1235.45L578.681 1239.4 547.099 1239.4 547.099 1235.45C549.194 1234.81 550.684 1234.24 551.57 1233.76 552.457 1233.28 553.209 1232.61 553.826 1231.75 554.444 1230.89 554.927 1229.57 555.277 1227.8 555.626 1226.03 555.8 1223.26 555.8 1219.5L555.8 1184.37C555.8 1180.94 555.747 1178.17 555.639 1176.08 555.532 1173.98 555.156 1172.3 554.511 1171.04 553.867 1169.78 552.886 1168.84 551.57 1168.22 550.255 1167.6 548.388 1167.08 545.971 1166.65L545.971 1162.38 564.824 1161.65 569.738 1161.65 568.852 1174.79 569.98 1175.11C573.955 1171.08 577.164 1168.21 579.608 1166.49 582.051 1164.77 584.522 1163.44 587.02 1162.5 589.517 1161.56 592.163 1161.09 594.956 1161.09ZM411.553 1161.09C416.924 1161.09 421.301 1162.33 424.685 1164.8 428.069 1167.27 430.405 1171.05 431.694 1176.16 435.723 1172.07 438.986 1169.07 441.483 1167.13 443.981 1165.2 446.532 1163.71 449.137 1162.66 451.742 1161.61 454.548 1161.09 457.556 1161.09 461.155 1161.09 464.257 1161.61 466.862 1162.66 469.466 1163.71 471.669 1165.32 473.468 1167.49 475.267 1169.67 476.583 1172.4 477.416 1175.67 478.248 1178.95 478.664 1183.35 478.664 1188.89L478.664 1219.26C478.664 1223.34 478.799 1226.16 479.067 1227.72 479.336 1229.28 479.725 1230.48 480.236 1231.34 480.746 1232.2 481.511 1232.94 482.532 1233.56 483.552 1234.18 485.271 1234.81 487.688 1235.45L487.688 1239.4 456.025 1239.4 456.025 1235.45C458.12 1234.81 459.624 1234.24 460.537 1233.76 461.45 1233.28 462.216 1232.61 462.833 1231.75 463.451 1230.89 463.934 1229.56 464.283 1227.76 464.633 1225.96 464.807 1223.23 464.807 1219.58L464.807 1198.47C464.807 1193.91 464.686 1190.13 464.445 1187.15 464.203 1184.17 463.827 1181.8 463.317 1180.02 462.806 1178.25 462.189 1176.85 461.464 1175.83 460.738 1174.81 459.919 1173.93 459.006 1173.17 458.093 1172.42 457.019 1171.83 455.784 1171.4 454.548 1170.97 452.91 1170.76 450.869 1170.76 448.721 1170.76 446.72 1171.19 444.867 1172.05 443.014 1172.91 441 1174.36 438.824 1176.4 436.649 1178.44 435.078 1180.49 434.111 1182.56 433.144 1184.63 432.661 1187.06 432.661 1189.85L432.661 1219.26C432.661 1223.34 432.795 1226.16 433.064 1227.72 433.332 1229.28 433.722 1230.48 434.232 1231.34 434.742 1232.2 435.508 1232.94 436.528 1233.56 437.549 1234.18 439.268 1234.81 441.685 1235.45L441.685 1239.4 410.022 1239.4 410.022 1235.45C412.117 1234.81 413.621 1234.24 414.534 1233.76 415.447 1233.28 416.212 1232.61 416.83 1231.75 417.447 1230.89 417.931 1229.56 418.28 1227.76 418.629 1225.96 418.804 1223.23 418.804 1219.58L418.804 1198.47C418.804 1193.69 418.669 1189.8 418.401 1186.79 418.132 1183.78 417.716 1181.37 417.152 1179.54 416.588 1177.71 415.863 1176.24 414.977 1175.11 414.091 1173.98 413.191 1173.12 412.278 1172.53 411.365 1171.94 410.29 1171.5 409.055 1171.2 407.82 1170.91 406.423 1170.76 404.866 1170.76 402.664 1170.76 400.596 1171.25 398.662 1172.25 396.728 1173.24 394.755 1174.68 392.74 1176.56 390.726 1178.44 389.209 1180.4 388.188 1182.44 387.168 1184.48 386.658 1186.68 386.658 1189.05L386.658 1219.26C386.658 1222.32 386.738 1224.66 386.899 1226.27 387.06 1227.88 387.316 1229.14 387.665 1230.05 388.014 1230.97 388.457 1231.71 388.994 1232.27 389.531 1232.83 390.297 1233.37 391.29 1233.88 392.284 1234.39 393.774 1234.92 395.762 1235.45L395.762 1239.4 364.18 1239.4 364.18 1235.45C366.221 1234.81 367.684 1234.24 368.57 1233.76 369.457 1233.28 370.222 1232.61 370.867 1231.75 371.511 1230.89 371.995 1229.57 372.317 1227.8 372.639 1226.03 372.8 1223.26 372.8 1219.5L372.8 1184.37C372.8 1180.94 372.747 1178.17 372.639 1176.08 372.532 1173.98 372.156 1172.3 371.511 1171.04 370.867 1169.78 369.886 1168.84 368.57 1168.22 367.255 1167.6 365.388 1167.08 362.971 1166.65L362.971 1162.38 381.824 1161.65 386.738 1161.65 385.852 1174.79 386.98 1175.11C390.203 1171.89 392.848 1169.46 394.916 1167.82 396.984 1166.18 398.984 1164.86 400.918 1163.87 402.852 1162.88 404.664 1162.16 406.356 1161.73 408.048 1161.3 409.78 1161.09 411.553 1161.09ZM510.317 1130.8 525.141 1130.8 525.141 1146.43 510.317 1146.43Z" fill="#00B050" fill-rule="evenodd"/><text fill="#000000" fill-opacity="0" font-family="Arial,Arial_MSFontService,sans-serif" font-size="108.604" x="362.971" y="1225.82">min</text><path d="M464.761 1280.7 490.483 1280.7 490.483 1284.45C488.608 1284.68 487.27 1285.08 486.47 1285.65 485.669 1286.22 485.268 1286.89 485.268 1287.67 485.268 1288.45 485.474 1289.25 485.884 1290.08 486.294 1290.9 486.948 1291.87 487.847 1293L495.581 1303.49 503.901 1293.42C504.8 1292.4 505.493 1291.45 505.981 1290.57 506.47 1289.69 506.714 1288.69 506.714 1287.56 506.714 1286.85 506.333 1286.22 505.571 1285.65 504.81 1285.08 503.647 1284.68 502.085 1284.45L502.085 1280.7 523.589 1280.7 523.589 1284.45C521.675 1284.92 519.849 1285.86 518.11 1287.26 516.372 1288.67 514.468 1290.58 512.397 1293L499.507 1308.47 513.745 1326.7C514.839 1328.14 515.864 1329.38 516.821 1330.42 517.778 1331.45 518.677 1332.32 519.517 1333.02 520.356 1333.73 521.167 1334.27 521.948 1334.67 522.729 1335.06 523.511 1335.35 524.292 1335.54L524.292 1339.29 498.218 1339.29 498.218 1335.37C499.936 1335.17 501.196 1334.78 501.997 1334.2 502.798 1333.61 503.198 1332.93 503.198 1332.15 503.198 1331.48 503.081 1330.8 502.847 1330.09 502.612 1329.39 502.124 1328.53 501.382 1327.52L492.358 1315.39 482.573 1327.4C481.831 1328.3 481.304 1329.1 480.991 1329.8 480.679 1330.5 480.522 1331.25 480.522 1332.03 480.522 1332.77 480.923 1333.46 481.724 1334.11 482.524 1334.75 483.784 1335.17 485.503 1335.37L485.503 1339.29 463.53 1339.29 463.53 1335.54C464.624 1335.15 465.601 1334.75 466.46 1334.34 467.319 1333.93 468.188 1333.39 469.067 1332.7 469.946 1332.02 470.893 1331.15 471.909 1330.09 472.925 1329.04 474.136 1327.67 475.542 1325.99L488.433 1310.58 475.19 1293.18C473.979 1291.58 472.925 1290.25 472.026 1289.2 471.128 1288.14 470.298 1287.28 469.536 1286.62 468.774 1285.95 468.013 1285.47 467.251 1285.15 466.489 1284.84 465.659 1284.61 464.761 1284.45Z" fill="#00B050" fill-rule="evenodd"/><text fill="#000000" fill-opacity="0" font-family="Arial,Arial_MSFontService,sans-serif" font-size="58.5938" x="463.53" y="1331.97">x</text><path d="M673.268 1129.43 760.441 1129.43 760.441 1157.46 752.546 1157.46C751.364 1152.85 750.196 1149.19 749.041 1146.51 747.886 1143.82 746.664 1141.78 745.375 1140.38 744.086 1138.99 742.703 1137.99 741.226 1137.4 739.749 1136.81 737.533 1136.52 734.579 1136.52L724.347 1136.52 724.347 1219.02C724.347 1222.19 724.522 1224.71 724.871 1226.59 725.22 1228.47 725.757 1229.96 726.482 1231.06 727.207 1232.16 728.188 1233.02 729.423 1233.64 730.658 1234.26 732.592 1234.86 735.224 1235.45L735.224 1239.4 698.405 1239.4 698.405 1235.45C700.016 1235.08 701.44 1234.67 702.675 1234.24 703.91 1233.81 704.917 1233.29 705.696 1232.67 706.475 1232.06 707.12 1231.26 707.63 1230.3 708.14 1229.33 708.543 1228.01 708.838 1226.35 709.134 1224.68 709.281 1222.24 709.281 1219.02L709.281 1136.52 699.13 1136.52C696.606 1136.52 694.524 1136.76 692.886 1137.24 691.248 1137.73 689.731 1138.73 688.334 1140.26 686.938 1141.79 685.662 1143.97 684.507 1146.79 683.352 1149.61 682.265 1153.17 681.244 1157.46L673.268 1157.46Z" fill="#FF0000" fill-rule="evenodd"/><text fill="#000000" fill-opacity="0" font-family="Arial,Arial_MSFontService,sans-serif" font-size="109.973" x="673.268" y="1225.65">T</text><path d="M829.164 1122.98 831.339 1129.19C818.771 1133.32 809.466 1141.39 803.423 1153.4 797.381 1165.4 794.359 1180.48 794.359 1198.63 794.359 1217.43 797.381 1232.93 803.423 1245.12 809.466 1257.31 818.691 1265.48 831.098 1269.61L829.164 1275.82C813.427 1271.68 801.369 1262.78 792.99 1249.11 784.611 1235.44 780.422 1218.88 780.422 1199.44 780.422 1180.05 784.624 1163.49 793.03 1149.77 801.436 1136.05 813.481 1127.12 829.164 1122.98Z" fill="#00B0F0" fill-rule="evenodd"/><text fill="#000000" fill-opacity="0" font-family="Arial,Arial_MSFontService,sans-serif" font-size="152.834" x="780.422" y="1256.71">(</text><path d="M838.053 1162.38 869.635 1162.38 869.635 1166.33C865.392 1166.97 863.271 1168.64 863.271 1171.32 863.271 1172.56 863.553 1173.79 864.117 1175.03 864.681 1176.26 865.553 1177.63 866.735 1179.14L876.564 1192.91 887.038 1179.62C888.166 1178.17 889.079 1176.76 889.777 1175.39 890.475 1174.02 890.824 1172.61 890.824 1171.16 890.824 1169.93 890.368 1168.9 889.455 1168.1 888.542 1167.29 887.118 1166.7 885.185 1166.33L885.185 1162.38 911.53 1162.38 911.53 1166.33C909.489 1166.92 907.408 1168.07 905.286 1169.79 903.164 1171.51 900.573 1174.28 897.511 1178.09L880.834 1198.55 899.203 1223.29C901.835 1226.83 904.198 1229.54 906.293 1231.42 908.388 1233.3 910.483 1234.65 912.577 1235.45L912.577 1239.4 880.19 1239.4 880.19 1235.45C884.648 1234.92 886.877 1233.25 886.877 1230.46 886.877 1229.33 886.689 1228.26 886.313 1227.23 885.937 1226.21 885.238 1225.03 884.218 1223.69L872.536 1207.42 860.129 1223.53C859.215 1224.71 858.504 1225.8 857.994 1226.79 857.483 1227.79 857.228 1228.9 857.228 1230.14 857.228 1231.59 857.725 1232.78 858.719 1233.72 859.712 1234.66 861.283 1235.24 863.432 1235.45L863.432 1239.4 836.523 1239.4 836.523 1235.45C838.295 1234.81 839.893 1234 841.316 1233.04 842.74 1232.07 844.19 1230.82 845.667 1229.29 847.144 1227.76 849.091 1225.52 851.508 1222.56L868.266 1201.78 851.105 1178.25C848.742 1175.03 846.862 1172.69 845.465 1171.24 844.069 1169.79 842.78 1168.69 841.598 1167.94 840.417 1167.19 839.235 1166.65 838.053 1166.33Z" fill="#00B0F0" fill-rule="evenodd"/><text fill="#000000" fill-opacity="0" font-family="Arial,Arial_MSFontService,sans-serif" font-size="77.0215" x="836.523" y="1229.77">x</text><path d="M919.542 1122.98C935.225 1127.12 947.27 1136.05 955.676 1149.77 964.082 1163.49 968.284 1180.05 968.284 1199.44 968.284 1218.88 964.095 1235.44 955.716 1249.11 947.337 1262.78 935.279 1271.68 919.542 1275.82L917.608 1269.61C930.015 1265.48 939.24 1257.31 945.283 1245.12 951.325 1232.93 954.346 1217.43 954.346 1198.63 954.346 1180.48 951.339 1165.4 945.323 1153.4 939.307 1141.39 929.989 1133.32 917.366 1129.19Z" fill="#00B0F0" fill-rule="evenodd"/><text fill="#000000" fill-opacity="0" font-family="Arial,Arial_MSFontService,sans-serif" font-size="152.834" x="917.366" y="1256.71">)</text><path d="M1040.89 1220.31 1140.15 1220.31 1140.15 1231.02 1040.89 1231.02ZM1040.89 1186.87 1140.15 1186.87 1140.15 1197.59 1040.89 1197.59ZM1040.89 1153.44 1140.15 1153.44 1140.15 1164.15 1040.89 1164.15Z" fill-rule="evenodd"/><text fill="#000000" fill-opacity="0" font-family="Arial,Arial_MSFontService,sans-serif" font-size="77.5854" x="1040.89" y="1221.32">≡</text><text fill="#00B050" font-family="Cambria,Cambria_MSFontService,sans-serif" font-weight="400" font-size="165" transform="matrix(1 0 0 1 1185.87 1239)">minimize</text><text fill="#FF0000" font-family="Cambria,Cambria_MSFontService,sans-serif" font-weight="400" font-size="165" transform="matrix(1 0 0 1 1881.96 1239)">the total amount of time to get to school</text><text fill="#00B0F0" font-family="Cambria,Cambria_MSFontService,sans-serif" font-weight="400" font-size="165" transform="matrix(1 0 0 1 4677.47 1239)">, </text><text fill="#00B0F0" font-family="Cambria,Cambria_MSFontService,sans-serif" font-weight="400" font-size="165" transform="matrix(1 0 0 1 1181.28 1498)">a function of the design variables</text><path d="M631 1109C631 1070.89 636.148 1040 642.499 1040L802.5 1040C808.851 1040 814 1009.11 814 971 814 1009.11 819.148 1040 825.499 1040L985.5 1040C991.851 1040 997 1070.89 997 1109" stroke="#000000" stroke-width="13.75" stroke-miterlimit="8" fill="none" fill-rule="evenodd"/><text font-family="Cambria,Cambria_MSFontService,sans-serif" font-weight="700" font-size="128" transform="matrix(1 0 0 1 265.17 924)">Objective Function</text><path d="M997 1311C997 1349.38 991.814 1380.5 985.417 1380.5L671.583 1380.5C665.186 1380.5 660 1411.62 660 1450 660 1411.62 654.814 1380.5 648.417 1380.5L334.583 1380.5C328.186 1380.5 323 1349.38 323 1311" stroke="#000000" stroke-width="13.75" stroke-miterlimit="8" fill="none" fill-rule="evenodd"/><text font-family="Cambria,Cambria_MSFontService,sans-serif" font-weight="700" font-size="128" transform="matrix(1 0 0 1 272.335 1601)">Optimization </text><text font-family="Cambria,Cambria_MSFontService,sans-serif" font-weight="700" font-size="128" transform="matrix(1 0 0 1 359.167 1755)">Statement</text></g></svg>