<svg width="4645" height="2027" xmlns="http://www.w3.org/2000/svg" xmlns:xlink="http://www.w3.org/1999/xlink" xml:space="preserve" overflow="hidden"><g transform="translate(-202 -114)"><text font-family="Cambria,Cambria_MSFontService,sans-serif" font-style="italic" font-weight="700" font-size="165" transform="matrix(1 0 0 1 1311.75 324)">Cook breakfast </text><text font-family="Cambria,Cambria_MSFontService,sans-serif" font-weight="400" font-size="165" transform="matrix(1 0 0 1 2451.85 324)">= {“Eggs and Toast” : 7 minutes,</text><text font-family="Cambria,Cambria_MSFontService,sans-serif" font-weight="400" font-size="165" transform="matrix(1 0 0 1 2575.03 522)">“Cereal” : 2 minutes,</text><text font-family="Cambria,Cambria_MSFontService,sans-serif" font-weight="400" font-size="165" transform="matrix(1 0 0 1 2575.03 720)">“Pancakes” : 15 minutes}</text><text font-family="Cambria,Cambria_MSFontService,sans-serif" font-style="italic" font-weight="700" font-size="165" transform="matrix(1 0 0 1 301.125 1066)">Outfit picked out night before</text><text font-family="Cambria,Cambria_MSFontService,sans-serif" font-weight="400" font-size="165" transform="matrix(1 0 0 1 2507.93 1066)">= {“No” : 5 minutes, </text><text font-family="Cambria,Cambria_MSFontService,sans-serif" font-weight="400" font-size="165" transform="matrix(1 0 0 1 2611.12 1264)">“Yes” : 1 minute}</text><text font-family="Cambria,Cambria_MSFontService,sans-serif" font-style="italic" font-weight="700" font-size="165" transform="matrix(1 0 0 1 734.25 1608)">Mode of transportation </text><text font-family="Cambria,Cambria_MSFontService,sans-serif" font-weight="400" font-size="165" transform="matrix(1 0 0 1 2490.95 1608)">= {“Bike” : 30 minutes, </text><text font-family="Cambria,Cambria_MSFontService,sans-serif" font-weight="400" font-size="165" transform="matrix(1 0 0 1 2585.34 1806)">“Bus” : 15 minutes, </text><text font-family="Cambria,Cambria_MSFontService,sans-serif" font-weight="400" font-size="165" transform="matrix(1 0 0 1 2585.34 2004)">“Car” : 10 minutes}</text></g></svg>