<svg width="521" height="261" xmlns="http://www.w3.org/2000/svg" xmlns:xlink="http://www.w3.org/1999/xlink" xml:space="preserve" overflow="hidden"><g><path d="M0 260.5 521 260.5 521 0 0 0Z" fill="#FFFFFF" transform="scale(1 1.00192)"/><path d="M48.5106 218.108 377.372 218.108 377.372 7.42559 48.5106 7.42559Z" fill="#FFFFFF" transform="scale(1 1.00192)"/><path d="M0 0 0 3.1658" stroke="#5A5758" stroke-width="0.723611" stroke-linejoin="round" fill="none" transform="matrix(1 0 0 1.00192 48.5106 218.527)"/><path d="M0.701424 4.20431 0.701424 4.42469C0.701424 4.71572 0.707075 4.96365 0.718377 5.1685 0.729679 5.37335 0.752989 5.65024 0.788308 5.99919 0.823626 6.34814 0.886493 6.65611 0.976908 6.92312 1.06732 7.19013 1.17964 7.46561 1.31385 7.74957 1.44947 8.03495 1.63312 8.28147 1.86481 8.48914 2.0965 8.69681 2.36422 8.85575 2.66796 8.96594 2.92931 9.06766 3.22528 9.1164 3.55586 9.11216 3.80733 9.11216 4.05244 9.08108 4.29119 9.01892 4.52994 8.95817 4.7807 8.82679 5.04347 8.62476 5.30624 8.42415 5.5344 8.16845 5.72794 7.85765 5.9229 7.54684 6.08395 7.11949 6.2111 6.57559 6.33966 6.0331 6.40394 5.40655 6.40394 4.69594 6.40394 3.94436 6.37639 3.33124 6.32129 2.85656 6.2662 2.38329 6.13905 1.91426 5.93986 1.44947 5.67991 0.836341 5.33026 0.40263 4.8909 0.148337 4.45154-0.104543 4.00652-0.230983 3.55586-0.230983 3.30439-0.230983 3.05787-0.199196 2.81629-0.135623 2.57613-0.0720496 2.32466 0.059335 2.06189 0.258531 1.80053 0.457727 1.57238 0.712726 1.37742 1.02353 1.18387 1.33433 1.02282 1.7631 0.894263 2.30983 0.765704 2.85797 0.701424 3.48946 0.701424 4.20431ZM1.57662 5.1134C1.57662 5.05972 1.57873 4.99827 1.58297 4.92904 1.58721 4.86123 1.58933 4.82309 1.58933 4.81461L1.58933 4.55608C1.58933 4.03054 1.59569 3.60531 1.6084 3.28038 1.62253 2.95686 1.67904 2.57966 1.77793 2.14877 1.87682 1.71789 2.01739 1.38166 2.19963 1.14008 2.55282 0.689416 3.00489 0.464084 3.55586 0.464084 4.13508 0.464084 4.59422 0.702131 4.93328 1.17822 5.10563 1.42121 5.23914 1.76027 5.33379 2.19539 5.42844 2.63052 5.48354 3.0056 5.49908 3.32064 5.51462 3.63709 5.52239 4.05809 5.52239 4.58363L5.52239 4.81461C5.52239 4.82309 5.52451 4.85911 5.52875 4.92268 5.5344 4.98767 5.53723 5.0463 5.53723 5.09857 5.53723 6.3658 5.34297 7.25088 4.95447 7.75381 4.61824 8.20447 4.15204 8.43192 3.55586 8.43616 2.94273 8.43616 2.46805 8.196 2.13182 7.71567 1.76168 7.18165 1.57662 6.31423 1.57662 5.1134Z" fill="#5A5758" transform="matrix(1 0 0 -1.00192 44.9516 234.312)"/><path d="M0 0 0 3.1658" stroke="#5A5758" stroke-width="0.723611" stroke-linejoin="round" fill="none" transform="matrix(1 0 0 1.00192 114.283 218.527)"/><path d="M0.582754 6.83412C1.03342 8.35281 1.96088 9.11216 3.36514 9.11216L3.37786 9.11216C4.25658 9.10368 4.98061 8.83738 5.54994 8.31325 6.11927 7.79054 6.40394 7.13009 6.40394 6.33189 6.40394 5.98718 6.3439 5.66367 6.22382 5.36134 6.10515 5.05901 5.91513 4.76516 5.65378 4.47979 5.39383 4.19583 5.19322 3.98816 5.05195 3.85677 4.91068 3.7268 4.68111 3.53608 4.36324 3.28462 3.93094 2.93143 3.63497 2.68632 3.47533 2.54929 3.31711 2.41225 2.651 1.81607 1.47702 0.760759L6.40394 0.760759 6.40394 0 0.701424 0 0.701424 0.722615 3.56858 3.31216C4.21843 3.8815 4.70088 4.38655 5.01592 4.82732 5.33238 5.26951 5.4906 5.76609 5.4906 6.31706 5.4906 6.9316 5.26951 7.43171 4.82732 7.81738 4.38655 8.20447 3.83488 8.39802 3.1723 8.39802 2.56765 8.39802 2.11416 8.20801 1.81184 7.82798 1.50951 7.44795 1.26793 6.91394 1.0871 6.22593L0.582754 6.83412Z" fill="#5A5758" transform="matrix(1 0 0 -1.00192 110.724 234.312)"/><path d="M0 0 0 3.1658" stroke="#5A5758" stroke-width="0.723611" stroke-linejoin="round" fill="none" transform="matrix(1 0 0 1.00192 180.055 218.527)"/><path d="M0.389916 2.45604 0.389916 3.18502 4.13862 9.0062 5.16638 9.0062 5.16638 3.1723 6.71545 3.1723 6.71545 2.45604 5.16638 2.45604 5.16638 0 4.31026 0 4.31026 2.45604 0.389916 2.45604ZM1.27782 3.1723 4.35053 3.1723 4.35053 8.23061C4.23186 7.92263 3.91611 7.35754 3.40329 6.53532L1.27782 3.1723Z" fill="#5A5758" transform="matrix(1 0 0 -1.00192 176.496 234.312)"/><path d="M0 0 0 3.1658" stroke="#5A5758" stroke-width="0.723611" stroke-linejoin="round" fill="none" transform="matrix(1 0 0 1.00192 245.828 218.527)"/><path d="M0.73533 4.36324C0.73533 5.79434 1.10052 6.94361 1.83091 7.81103 2.56129 8.67845 3.41671 9.11216 4.39715 9.11216L4.42469 9.11216C4.90503 9.11216 5.40584 9.02598 5.92714 8.85363L5.92714 8.1522C5.33097 8.34151 4.82097 8.43616 4.39715 8.43616L4.36324 8.43616C3.54244 8.43616 2.88128 8.09075 2.37976 7.39992 1.87965 6.70909 1.62959 5.80282 1.62959 4.68111 1.62959 4.66415 1.63171 4.63449 1.63595 4.5921 1.64019 4.55113 1.64231 4.52147 1.64231 4.5031 1.85846 4.95376 2.18621 5.33591 2.62557 5.64954 3.06493 5.96317 3.56928 6.11998 4.13862 6.11998 4.75316 6.11998 5.26739 5.83461 5.68132 5.26386 6.14046 4.62389 6.37215 3.86454 6.37639 2.98582 6.37639 2.08167 6.10091 1.31597 5.54994 0.68871 5.01592 0.0755815 4.36041-0.230983 3.58341-0.230983 3.33194-0.230983 3.08542-0.194251 2.84384-0.120789 2.60368-0.0487394 2.35221 0.0911216 2.08944 0.298794 1.82667 0.506466 1.59781 0.775593 1.40285 1.10617 1.2093 1.43675 1.04966 1.88106 0.92393 2.43909 0.798197 2.99854 0.73533 3.63992 0.73533 4.36324ZM1.68257 2.94132C1.70941 2.63193 1.7525 2.35998 1.81184 2.12546 1.87117 1.89236 1.96371 1.63736 2.08944 1.36047 2.21517 1.08498 2.40448 0.868834 2.65736 0.71202 2.91165 0.555206 3.22034 0.476799 3.58341 0.476799 4.2149 0.476799 4.7023 0.706369 5.04559 1.16551 5.23631 1.42545 5.35569 1.68681 5.40372 1.94958 5.45175 2.21235 5.47577 2.57542 5.47577 3.0388 5.47577 3.33971 5.46659 3.58129 5.44822 3.76353 5.43127 3.94719 5.36628 4.16828 5.25326 4.42681 5.14166 4.68534 4.98202 4.90503 4.77435 5.08586 4.49604 5.32037 4.12519 5.43763 3.66182 5.43763 3.09248 5.43763 2.62204 5.22572 2.25049 4.8019 1.88035 4.37807 1.69529 3.87655 1.69529 3.29733 1.69529 3.13487 1.69952 3.0162 1.708 2.94132L1.68257 2.94132Z" fill="#5A5758" transform="matrix(1 0 0 -1.00192 242.268 234.312)"/><path d="M0 0 0 3.1658" stroke="#5A5758" stroke-width="0.723611" stroke-linejoin="round" fill="none" transform="matrix(1 0 0 1.00192 311.6 218.527)"/><path d="M0.582754 2.45604C0.582754 2.96463 0.755108 3.43083 1.09982 3.85465 1.44452 4.27848 1.95876 4.59422 2.64253 4.8019 2.16078 4.92057 1.73131 5.15508 1.35411 5.50544 0.976908 5.85721 0.788308 6.28668 0.788308 6.79386 0.788308 7.4084 1.05178 7.94806 1.57873 8.41285 2.1071 8.87906 2.76614 9.11216 3.55586 9.11216 4.32439 9.11216 4.97637 8.88541 5.5118 8.43192 6.04864 7.97985 6.31706 7.43877 6.31706 6.80869 6.31706 6.39334 6.17931 6.01968 5.90383 5.68768 5.62835 5.3571 5.27375 5.1014 4.84004 4.92057L4.45012 4.8019C4.96719 4.67334 5.43975 4.4035 5.86781 3.9924 6.29587 3.5827 6.5099 3.07059 6.5099 2.45604 6.5099 1.73272 6.2224 1.10405 5.64742 0.57004 5.07385 0.0360248 4.37242-0.230983 3.54315-0.230983 2.70398-0.230983 2.00044 0.040263 1.43252 0.582754 0.866008 1.12525 0.582754 1.74968 0.582754 2.45604ZM1.47702 2.45604C1.47702 1.81607 1.66915 1.32585 2.05341 0.985385 2.43768 0.646327 2.93426 0.476799 3.54315 0.476799 4.17464 0.476799 4.67757 0.649859 5.05195 0.99598 5.42774 1.34351 5.61563 1.83515 5.61563 2.47088 5.61563 3.11085 5.41926 3.60248 5.02652 3.94578 4.63378 4.29048 4.13932 4.46284 3.54315 4.46284 2.99077 4.46284 2.50832 4.30249 2.0958 3.9818 1.68328 3.66252 1.47702 3.15394 1.47702 2.45604ZM1.60204 6.79386C1.60204 6.3446 1.76168 5.9561 2.08096 5.62835 2.40165 5.302 2.88905 5.13883 3.54315 5.13883 4.13932 5.13883 4.61259 5.28576 4.96295 5.57961 5.31472 5.87346 5.4906 6.27821 5.4906 6.79386 5.4906 7.21768 5.3458 7.597 5.05619 7.93182 4.76658 8.26805 4.27071 8.43616 3.56858 8.43616 2.84525 8.43616 2.33667 8.26805 2.04282 7.93182 1.74897 7.597 1.60204 7.21768 1.60204 6.79386Z" fill="#5A5758" transform="matrix(1 0 0 -1.00192 308.041 234.312)"/><path d="M0 0 0 3.1658" stroke="#5A5758" stroke-width="0.723611" stroke-linejoin="round" fill="none" transform="matrix(1 0 0 1.00192 377.372 218.527)"/><path d="M1.42404 7.5419 1.42404 8.23061C2.49207 8.23061 3.33335 8.52446 3.9479 9.11216L4.16616 9.11216 4.16616 0.675995 5.93986 0.675995 5.93986 0 1.50245 0 1.50245 0.675995 3.28462 0.675995 3.28462 7.93393C2.75908 7.67258 2.13888 7.5419 1.42404 7.5419Z" fill="#5A5758" transform="matrix(1 0 0 -1.00192 370.254 234.312)"/><path d="M0.701424 4.20431 0.701424 4.42469C0.701424 4.71572 0.707075 4.96365 0.718377 5.1685 0.729679 5.37335 0.752989 5.65024 0.788308 5.99919 0.823626 6.34814 0.886493 6.65611 0.976908 6.92312 1.06732 7.19013 1.17964 7.46561 1.31385 7.74957 1.44947 8.03495 1.63312 8.28147 1.86481 8.48914 2.0965 8.69681 2.36422 8.85575 2.66796 8.96594 2.92931 9.06766 3.22528 9.1164 3.55586 9.11216 3.80733 9.11216 4.05244 9.08108 4.29119 9.01892 4.52994 8.95817 4.7807 8.82679 5.04347 8.62476 5.30624 8.42415 5.5344 8.16845 5.72794 7.85765 5.9229 7.54684 6.08395 7.11949 6.2111 6.57559 6.33966 6.0331 6.40394 5.40655 6.40394 4.69594 6.40394 3.94436 6.37639 3.33124 6.32129 2.85656 6.2662 2.38329 6.13905 1.91426 5.93986 1.44947 5.67991 0.836341 5.33026 0.40263 4.8909 0.148337 4.45154-0.104543 4.00652-0.230983 3.55586-0.230983 3.30439-0.230983 3.05787-0.199196 2.81629-0.135623 2.57613-0.0720496 2.32466 0.059335 2.06189 0.258531 1.80053 0.457727 1.57238 0.712726 1.37742 1.02353 1.18387 1.33433 1.02282 1.7631 0.894263 2.30983 0.765704 2.85797 0.701424 3.48946 0.701424 4.20431ZM1.57662 5.1134C1.57662 5.05972 1.57873 4.99827 1.58297 4.92904 1.58721 4.86123 1.58933 4.82309 1.58933 4.81461L1.58933 4.55608C1.58933 4.03054 1.59569 3.60531 1.6084 3.28038 1.62253 2.95686 1.67904 2.57966 1.77793 2.14877 1.87682 1.71789 2.01739 1.38166 2.19963 1.14008 2.55282 0.689416 3.00489 0.464084 3.55586 0.464084 4.13508 0.464084 4.59422 0.702131 4.93328 1.17822 5.10563 1.42121 5.23914 1.76027 5.33379 2.19539 5.42844 2.63052 5.48354 3.0056 5.49908 3.32064 5.51462 3.63709 5.52239 4.05809 5.52239 4.58363L5.52239 4.81461C5.52239 4.82309 5.52451 4.85911 5.52875 4.92268 5.5344 4.98767 5.53723 5.0463 5.53723 5.09857 5.53723 6.3658 5.34297 7.25088 4.95447 7.75381 4.61824 8.20447 4.15204 8.43192 3.55586 8.43616 2.94273 8.43616 2.46805 8.196 2.13182 7.71567 1.76168 7.18165 1.57662 6.31423 1.57662 5.1134Z" fill="#5A5758" transform="matrix(1 0 0 -1.00192 377.373 234.312)"/><path d="M2.55921 1.42207C1.48397 2.55666 0.946348 3.96007 0.946348 5.6323 0.946348 7.30451 1.47973 8.71301 2.54649 9.85779 3.61495 11.0026 4.88861 11.575 6.3675 11.575 7.83111 11.575 9.10054 11 10.1758 9.85016 11.251 8.70029 11.7886 7.29604 11.7886 5.63738 11.7886 4.62998 11.5741 3.68787 11.145 2.81106 10.7159 1.93425 10.1037 1.22025 9.3083 0.669058L9.3083 0.65125 11.3129-1.80366 9.33374-1.80366 7.9422-0.0152637C7.34352-0.189948 6.81862-0.27729 6.3675-0.27729 4.90557-0.27729 3.63615 0.289162 2.55921 1.42207ZM2.60754 5.58142C2.60754 4.75379 2.72965 4.02876 2.97387 3.40634 3.21809 2.78392 3.53693 2.30651 3.9304 1.9741 4.32556 1.64339 4.72665 1.39747 5.13368 1.23636 5.54241 1.07524 5.95368 0.994683 6.3675 0.994683L6.43109 0.994683C6.53794 0.994683 6.76096 1.01588 7.10015 1.05828L5.48475 3.1723 7.25788 3.1723 8.45099 1.69427C9.56863 2.5626 10.1274 3.87104 10.1274 5.61958 10.1274 7.03062 9.7696 8.16606 9.0539 9.02592 8.3399 9.88747 7.44443 10.3182 6.3675 10.3182 5.30243 10.3182 4.40951 9.88662 3.68872 9.02337 2.96794 8.16013 2.60754 7.01281 2.60754 5.58142Z" fill="#5A5758" transform="matrix(1 0 0 -1.00192 133.022 255.429)"/><path d="M1.04047 2.13183 1.04047 7.6878 2.60754 7.6878 2.60754 2.24885C2.61772 1.71971 2.65503 1.39917 2.71948 1.28724 2.84159 1.11255 3.2147 1.02521 3.83881 1.02521 4.48158 1.02521 4.95221 1.19311 5.2507 1.52891 5.55089 1.86641 5.72218 2.20221 5.76458 2.53631 5.77476 2.64146 5.77984 2.81106 5.77984 3.0451L5.77984 7.6878 7.34691 7.6878 7.34691 0 5.81037 0 5.81037 1.22364C5.0421 0.323081 4.02791-0.127197 2.76781-0.127197 2.37435-0.127197 2.05296-0.0602067 1.80366 0.0737744 1.55605 0.209452 1.38051 0.407031 1.27706 0.666514 1.17361 0.927692 1.10831 1.16089 1.08118 1.3661 1.05404 1.57301 1.04047 1.82825 1.04047 2.13183Z" fill="#5A5758" transform="matrix(1 0 0 -1.00192 145.766 255.429)"/><path d="M0.635986 2.16235C0.635986 2.87805 1.07863 3.42669 1.96393 3.80829 2.84922 4.18988 3.98636 4.40187 5.37536 4.44427L5.37536 5.01666C5.37536 5.461 5.31939 5.78663 5.20746 5.99354 4.94797 6.49215 4.54264 6.74146 3.99145 6.74146 3.44026 6.73128 2.98914 6.6609 2.63807 6.53031 2.2887 6.40141 1.88082 6.16737 1.41443 5.82818L1.30504 7.19428C2.2056 7.66067 3.11125 7.89386 4.02198 7.89386 4.83943 7.89386 5.51527 7.65558 6.0495 7.17901 6.58543 6.70245 6.87968 6.12752 6.93225 5.45422L6.94751 4.91236 6.94751 0 5.42115 0 5.42115 0.587651 5.40588 1.04047C5.104 0.658882 4.69952 0.368872 4.19242 0.170444 3.68702-0.0279834 3.17484-0.127197 2.65588-0.127197 2.0148-0.127197 1.51789 0.11363 1.16513 0.595283 0.812367 1.07863 0.635986 1.60099 0.635986 2.16235ZM2.14709 2.19542C2.14709 1.8715 2.28616 1.60608 2.5643 1.39917 2.84244 1.19226 3.18248 1.08881 3.58442 1.08881 3.95584 1.08881 4.29757 1.17106 4.60963 1.33557 4.92338 1.50008 5.1464 1.71716 5.27869 1.98682 5.34313 2.13098 5.37536 2.354 5.37536 2.65588L5.37536 3.68109C4.37813 3.63869 3.59035 3.4886 3.01203 3.23081 2.4354 2.97472 2.14709 2.62959 2.14709 2.19542Z" fill="#5A5758" transform="matrix(1 0 0 -1.00192 154.177 255.429)"/><path d="M1.04047 0 1.04047 7.6878 2.53631 7.6878 2.53631 6.90172 2.55921 6.35223C3.13753 7.32741 3.95668 7.815 5.01666 7.815 5.45083 7.815 5.82139 7.74971 6.12836 7.61912 6.43703 7.49022 6.66768 7.33843 6.82032 7.16375 6.97465 6.98907 7.09506 6.76096 7.18156 6.47943 7.26975 6.1979 7.31893 5.96725 7.32911 5.78748 7.34098 5.6077 7.34691 5.38808 7.34691 5.12859L7.34691 0 5.77984 0 5.77984 5.14386C5.77984 5.32872 5.76882 5.48305 5.74677 5.60686 5.72642 5.73236 5.66961 5.88245 5.57633 6.05713 5.48475 6.23182 5.32193 6.3641 5.08789 6.45399 4.85554 6.54557 4.55875 6.59136 4.19751 6.59136 3.8634 6.59136 3.57933 6.50741 3.34529 6.33951 3.11294 6.17331 2.94758 5.95707 2.84922 5.69081 2.75255 5.42624 2.6881 5.19304 2.65588 4.99122 2.62366 4.7911 2.60754 4.59267 2.60754 4.39594L2.60754 0 1.04047 0Z" fill="#5A5758" transform="matrix(1 0 0 -1.00192 162.182 255.429)"/><path d="M0.310361 6.46417 0.310361 7.6878 1.64593 7.6878 1.64593 9.88068 3.1087 9.88068 3.1087 7.6878 5.39062 7.6878 5.39062 6.46417 3.1087 6.46417 3.1087 2.73474C3.1087 1.66968 3.39193 1.13714 3.95838 1.13714 4.38237 1.13714 4.84876 1.32794 5.35755 1.70953L5.68317 0.54186C4.86742 0.0958219 3.98806-0.127197 3.0451-0.127197 2.09028-0.127197 1.61286 0.768272 1.61286 2.55921L1.61286 6.46417 0.310361 6.46417Z" fill="#5A5758" transform="matrix(1 0 0 -1.00192 170.593 255.429)"/><path d="M1.05828 0 1.05828 7.6878 2.59228 7.6878 2.59228 0 1.05828 0ZM1.05828 9.77129 1.05828 11.2977 2.58465 11.2977 2.58465 9.77129 1.05828 9.77129Z" fill="#5A5758" transform="matrix(1 0 0 -1.00192 176.762 255.429)"/><path d="M0.310361 6.46417 0.310361 7.6878 1.64593 7.6878 1.64593 9.88068 3.1087 9.88068 3.1087 7.6878 5.39062 7.6878 5.39062 6.46417 3.1087 6.46417 3.1087 2.73474C3.1087 1.66968 3.39193 1.13714 3.95838 1.13714 4.38237 1.13714 4.84876 1.32794 5.35755 1.70953L5.68317 0.54186C4.86742 0.0958219 3.98806-0.127197 3.0451-0.127197 2.09028-0.127197 1.61286 0.768272 1.61286 2.55921L1.61286 6.46417 0.310361 6.46417Z" fill="#5A5758" transform="matrix(1 0 0 -1.00192 180.419 255.429)"/><path d="M0.231499 7.6878 1.78839 7.6878C2.87551 4.84198 3.50132 3.1087 3.66583 2.48798 3.73875 2.16575 3.79641 1.85878 3.83881 1.56707 3.88121 2.1861 4.41459 3.97958 5.43896 6.94751 5.55937 7.27144 5.64671 7.51821 5.70098 7.6878L7.20954 7.6878 4.38067-0.325625C4.11102-1.08372 3.77945-1.69342 3.38599-2.15472 2.99422-2.61602 2.44558-2.84667 1.74006-2.84667 1.49245-2.84667 1.08711-2.80936 0.524053-2.73474L0.389224-1.38391C0.940412-1.54841 1.39663-1.63067 1.75787-1.63067 1.85284-1.63067 1.94103-1.62219 2.02244-1.60523 2.10554-1.58997 2.18016-1.57046 2.2463-1.54672 2.31245-1.52298 2.37689-1.48397 2.43964-1.4297 2.50409-1.37712 2.55582-1.33472 2.59482-1.3025 2.63553-1.27197 2.68217-1.21261 2.73474-1.12442 2.78732-1.03793 2.82378-0.976027 2.84413-0.938716 2.86618-0.901405 2.89925-0.828478 2.94334-0.719937 2.98914-0.611395 3.01966-0.536772 3.03493-0.496069 3.05189-0.457062 3.08157-0.372264 3.12396-0.241675 3.16636-0.112782 3.19265-0.0322233 3.20283 0L0.231499 7.6878Z" fill="#5A5758" transform="matrix(1 0 0 -1.00192 186.588 255.429)"/><path d="M1.60014 0.992139C0.845438 1.74006 0.468086 2.68386 0.468086 3.82355 0.468086 4.96324 0.842894 5.924 1.59251 6.70584 2.34382 7.48768 3.2359 7.8786 4.26874 7.8786 5.34568 7.8786 6.24708 7.47157 6.97295 6.65751 7.69883 5.84514 8.06176 4.8954 8.06176 3.80829 8.06176 2.69065 7.68611 1.75532 6.93479 1.00231 6.18518 0.249307 5.29649-0.127197 4.26874-0.127197 3.24607-0.127197 2.35654 0.245915 1.60014 0.992139ZM2.03516 4.05505C2.03516 3.04765 2.23698 2.30312 2.64062 1.82146 3.03238 1.36525 3.57509 1.13714 4.26874 1.13714 4.92169 1.13714 5.4415 1.33812 5.82818 1.74006 6.27252 2.19627 6.49469 2.97811 6.49469 4.08558 6.49469 5.00818 6.28524 5.66791 5.86634 6.06477 5.44743 6.46332 4.9149 6.66259 4.26874 6.66259 2.77968 6.66259 2.03516 5.79341 2.03516 4.05505Z" fill="#5A5758" transform="matrix(1 0 0 -1.00192 199.451 255.429)"/><path d="M0.452822 6.46417 0.452822 7.6878 1.5976 7.6878 1.5976 8.54511C1.5976 9.04373 1.6595 9.46093 1.78331 9.79673 1.90881 10.1342 2.16744 10.4624 2.55921 10.7812 3.09005 11.2256 3.75571 11.4478 4.55621 11.4478 4.94797 11.4478 5.39825 11.4028 5.90704 11.3129L5.90704 9.92902C5.3762 10.1156 4.9149 10.2089 4.52313 10.2089 4.15172 10.2089 3.82016 10.13 3.52845 9.97227 3.23844 9.81624 3.09344 9.55252 3.09344 9.1811L3.09344 7.6878 4.88183 7.6878 4.88183 6.46417 3.12396 6.46417 3.12396 0 1.5976 0 1.5976 6.46417 0.452822 6.46417Z" fill="#5A5758" transform="matrix(1 0 0 -1.00192 207.997 255.429)"/><path d="M0.74792 0.867485 1.04047 2.53631C2.16999 1.58149 3.38175 1.10407 4.67577 1.10407 5.36942 1.10407 5.92824 1.29996 6.35223 1.69172 6.77622 2.08519 6.98822 2.53123 6.98822 3.02984 6.98822 3.45383 6.85169 3.81422 6.57864 4.11102 6.30559 4.40781 6.00201 4.62235 5.66791 4.75463 5.5034 4.81738 5.08704 4.91745 4.41883 5.05482 3.75232 5.19389 3.16976 5.39062 2.67114 5.64501 2.17253 5.89941 1.75363 6.27591 1.41443 6.77453 1.0922 7.26127 0.931084 7.78786 0.931084 8.35432 0.931084 9.19212 1.28554 9.93835 1.99445 10.593 2.70506 11.2476 3.6353 11.575 4.78516 11.575 5.89263 11.575 6.95006 11.3155 7.95746 10.7965L7.67254 9.10224C7.13153 9.5364 6.68634 9.82302 6.33697 9.96209 5.88075 10.1469 5.36348 10.2394 4.78516 10.2394 4.11186 10.2394 3.55813 10.0706 3.12396 9.73314 2.6898 9.39733 2.47271 8.99624 2.47271 8.52985 2.47271 8.15843 2.6033 7.84298 2.86448 7.5835 3.12736 7.32402 3.42076 7.13577 3.74469 7.01874 3.89902 6.96617 4.29757 6.86272 4.94034 6.70838 5.58481 6.55575 6.0105 6.44212 6.2174 6.3675 6.83643 6.13006 7.37659 5.73151 7.8379 5.17184 8.2992 4.61217 8.52985 3.95075 8.52985 3.18756 8.52985 2.28701 8.17454 1.48397 7.46394 0.778447 6.75502 0.0746224 5.8197-0.27729 4.65796-0.27729 3.30119-0.272202 1.99785 0.10939 0.74792 0.867485Z" fill="#5A5758" transform="matrix(1 0 0 -1.00192 218.634 255.429)"/><path d="M0.310361 6.46417 0.310361 7.6878 1.64593 7.6878 1.64593 9.88068 3.1087 9.88068 3.1087 7.6878 5.39062 7.6878 5.39062 6.46417 3.1087 6.46417 3.1087 2.73474C3.1087 1.66968 3.39193 1.13714 3.95838 1.13714 4.38237 1.13714 4.84876 1.32794 5.35755 1.70953L5.68317 0.54186C4.86742 0.0958219 3.98806-0.127197 3.0451-0.127197 2.09028-0.127197 1.61286 0.768272 1.61286 2.55921L1.61286 6.46417 0.310361 6.46417Z" fill="#5A5758" transform="matrix(1 0 0 -1.00192 228.118 255.429)"/><path d="M1.60014 0.992139C0.845438 1.74006 0.468086 2.68386 0.468086 3.82355 0.468086 4.96324 0.842894 5.924 1.59251 6.70584 2.34382 7.48768 3.2359 7.8786 4.26874 7.8786 5.34568 7.8786 6.24708 7.47157 6.97295 6.65751 7.69883 5.84514 8.06176 4.8954 8.06176 3.80829 8.06176 2.69065 7.68611 1.75532 6.93479 1.00231 6.18518 0.249307 5.29649-0.127197 4.26874-0.127197 3.24607-0.127197 2.35654 0.245915 1.60014 0.992139ZM2.03516 4.05505C2.03516 3.04765 2.23698 2.30312 2.64062 1.82146 3.03238 1.36525 3.57509 1.13714 4.26874 1.13714 4.92169 1.13714 5.4415 1.33812 5.82818 1.74006 6.27252 2.19627 6.49469 2.97811 6.49469 4.08558 6.49469 5.00818 6.28524 5.66791 5.86634 6.06477 5.44743 6.46332 4.9149 6.66259 4.26874 6.66259 2.77968 6.66259 2.03516 5.79341 2.03516 4.05505Z" fill="#5A5758" transform="matrix(1 0 0 -1.00192 234.287 255.429)"/><path d="M1.05828 0 1.05828 7.6878 2.52105 7.6878 2.52105 6.02661C3.16212 7.19682 4.11356 7.79295 5.37536 7.815L5.37536 6.43109C5.08365 6.43109 4.79279 6.38954 4.50278 6.30644 4.21447 6.22503 3.91768 6.09529 3.6124 5.91722 3.30882 5.74084 3.06291 5.47627 2.87466 5.12351 2.68641 4.77075 2.59228 4.34845 2.59228 3.85662L2.59228 0 1.05828 0Z" fill="#5A5758" transform="matrix(1 0 0 -1.00192 242.833 255.429)"/><path d="M0.468086 3.88715C0.468086 5.00648 0.824238 5.95368 1.53654 6.72874 2.25054 7.50549 3.10022 7.89386 4.08558 7.89386 4.35693 7.89386 4.6232 7.86418 4.88438 7.80482 5.14725 7.74716 5.422 7.63099 5.70861 7.4563 5.99523 7.28162 6.24115 7.0586 6.44636 6.78725 6.65326 6.51759 6.8271 6.14956 6.96787 5.68317 7.10863 5.21678 7.17901 4.67916 7.17901 4.07031L1.94103 4.07031 1.94103 3.91259C1.94103 3.10701 2.17677 2.43456 2.64825 1.89524 3.11972 1.35762 3.68618 1.08881 4.3476 1.08881 5.24986 1.08881 6.12497 1.39917 6.97295 2.01989L7.08234 0.699585C6.22419 0.148397 5.31261-0.127197 4.3476-0.127197 3.21979-0.127197 2.29125 0.270506 1.56198 1.06591 0.832718 1.86132 0.468086 2.80173 0.468086 3.88715ZM2.13183 5.03192 5.84344 5.03192C5.58396 6.11904 4.99292 6.66259 4.07031 6.66259 3.66837 6.66259 3.28508 6.51759 2.92045 6.22758 2.55751 5.93926 2.29464 5.54071 2.13183 5.03192Z" fill="#5A5758" transform="matrix(1 0 0 -1.00192 248.462 255.429)"/><path d="M1.30504 0 1.30504 11.3129 3.01203 11.3129 3.01203 0 1.30504 0Z" fill="#5A5758" transform="matrix(1 0 0 -1.00192 261.539 255.429)"/><path d="M0.310361 6.46417 0.310361 7.6878 1.64593 7.6878 1.64593 9.88068 3.1087 9.88068 3.1087 7.6878 5.39062 7.6878 5.39062 6.46417 3.1087 6.46417 3.1087 2.73474C3.1087 1.66968 3.39193 1.13714 3.95838 1.13714 4.38237 1.13714 4.84876 1.32794 5.35755 1.70953L5.68317 0.54186C4.86742 0.0958219 3.98806-0.127197 3.0451-0.127197 2.09028-0.127197 1.61286 0.768272 1.61286 2.55921L1.61286 6.46417 0.310361 6.46417Z" fill="#5A5758" transform="matrix(1 0 0 -1.00192 265.88 255.429)"/><path d="M0.468086 3.88715C0.468086 5.00648 0.824238 5.95368 1.53654 6.72874 2.25054 7.50549 3.10022 7.89386 4.08558 7.89386 4.35693 7.89386 4.6232 7.86418 4.88438 7.80482 5.14725 7.74716 5.422 7.63099 5.70861 7.4563 5.99523 7.28162 6.24115 7.0586 6.44636 6.78725 6.65326 6.51759 6.8271 6.14956 6.96787 5.68317 7.10863 5.21678 7.17901 4.67916 7.17901 4.07031L1.94103 4.07031 1.94103 3.91259C1.94103 3.10701 2.17677 2.43456 2.64825 1.89524 3.11972 1.35762 3.68618 1.08881 4.3476 1.08881 5.24986 1.08881 6.12497 1.39917 6.97295 2.01989L7.08234 0.699585C6.22419 0.148397 5.31261-0.127197 4.3476-0.127197 3.21979-0.127197 2.29125 0.270506 1.56198 1.06591 0.832718 1.86132 0.468086 2.80173 0.468086 3.88715ZM2.13183 5.03192 5.84344 5.03192C5.58396 6.11904 4.99292 6.66259 4.07031 6.66259 3.66837 6.66259 3.28508 6.51759 2.92045 6.22758 2.55751 5.93926 2.29464 5.54071 2.13183 5.03192Z" fill="#5A5758" transform="matrix(1 0 0 -1.00192 272.049 255.429)"/><path d="M1.04047 0 1.04047 7.6878 2.53631 7.6878 2.53631 6.90172 2.55921 6.35223C3.13753 7.32741 3.95668 7.815 5.01666 7.815 5.20152 7.815 5.37451 7.80398 5.53562 7.78193 5.69844 7.76158 5.84175 7.73275 5.96555 7.69543 6.09105 7.65812 6.20807 7.60894 6.31662 7.54789 6.42516 7.48683 6.51759 7.43002 6.59391 7.37744 6.67192 7.32487 6.7423 7.25703 6.80505 7.17393 6.8695 7.09252 6.92123 7.02383 6.96023 6.96787 6.99924 6.9119 7.03994 6.84152 7.08234 6.75672 7.12474 6.67192 7.15103 6.60917 7.16121 6.56847 7.17308 6.52946 7.19173 6.47519 7.21717 6.40565 7.24431 6.33782 7.25788 6.29881 7.25788 6.28863 7.81415 7.30621 8.64602 7.815 9.75349 7.815 9.76027 7.815 9.76621 7.815 9.77129 7.815 10.1953 7.815 10.5608 7.74971 10.8677 7.61912 11.1747 7.49022 11.4045 7.34098 11.5571 7.17138 11.7115 7.00179 11.8327 6.77877 11.9209 6.50232 12.0091 6.22758 12.0608 5.99693 12.0761 5.81037 12.0914 5.62551 12.099 5.39825 12.099 5.12859L12.099 0 10.5345 0 10.5345 5.04719C10.5124 5.5458 10.4302 5.89347 10.2877 6.09021 10.0384 6.42431 9.58219 6.59136 8.91907 6.59136 8.50695 6.59136 8.14402 6.42007 7.83026 6.07749 7.51821 5.7366 7.36218 5.17608 7.36218 4.39594L7.36218 0 5.77984 0 5.77984 5.04719C5.76967 5.52545 5.70353 5.85701 5.58142 6.04187 5.34737 6.4082 4.89116 6.59136 4.21277 6.59136 4.2026 6.59136 4.19242 6.59136 4.18225 6.59136 3.76843 6.59136 3.4021 6.42007 3.08326 6.07749 2.76612 5.7366 2.60754 5.17608 2.60754 4.39594L2.60754 0 1.04047 0Z" fill="#5A5758" transform="matrix(1 0 0 -1.00192 279.712 255.429)"/><path d="M0 0-3.1658 0" stroke="#5A5758" stroke-width="0.723611" stroke-linejoin="round" fill="none" transform="matrix(1 0 0 1.00192 48.5106 218.527)"/><path d="M0.701424 4.20431 0.701424 4.42469C0.701424 4.71572 0.707075 4.96365 0.718377 5.1685 0.729679 5.37335 0.752989 5.65024 0.788308 5.99919 0.823626 6.34814 0.886493 6.65611 0.976908 6.92312 1.06732 7.19013 1.17964 7.46561 1.31385 7.74957 1.44947 8.03495 1.63312 8.28147 1.86481 8.48914 2.0965 8.69681 2.36422 8.85575 2.66796 8.96594 2.92931 9.06766 3.22528 9.1164 3.55586 9.11216 3.80733 9.11216 4.05244 9.08108 4.29119 9.01892 4.52994 8.95817 4.7807 8.82679 5.04347 8.62476 5.30624 8.42415 5.5344 8.16845 5.72794 7.85765 5.9229 7.54684 6.08395 7.11949 6.2111 6.57559 6.33966 6.0331 6.40394 5.40655 6.40394 4.69594 6.40394 3.94436 6.37639 3.33124 6.32129 2.85656 6.2662 2.38329 6.13905 1.91426 5.93986 1.44947 5.67991 0.836341 5.33026 0.40263 4.8909 0.148337 4.45154-0.104543 4.00652-0.230983 3.55586-0.230983 3.30439-0.230983 3.05787-0.199196 2.81629-0.135623 2.57613-0.0720496 2.32466 0.059335 2.06189 0.258531 1.80053 0.457727 1.57238 0.712726 1.37742 1.02353 1.18387 1.33433 1.02282 1.7631 0.894263 2.30983 0.765704 2.85797 0.701424 3.48946 0.701424 4.20431ZM1.57662 5.1134C1.57662 5.05972 1.57873 4.99827 1.58297 4.92904 1.58721 4.86123 1.58933 4.82309 1.58933 4.81461L1.58933 4.55608C1.58933 4.03054 1.59569 3.60531 1.6084 3.28038 1.62253 2.95686 1.67904 2.57966 1.77793 2.14877 1.87682 1.71789 2.01739 1.38166 2.19963 1.14008 2.55282 0.689416 3.00489 0.464084 3.55586 0.464084 4.13508 0.464084 4.59422 0.702131 4.93328 1.17822 5.10563 1.42121 5.23914 1.76027 5.33379 2.19539 5.42844 2.63052 5.48354 3.0056 5.49908 3.32064 5.51462 3.63709 5.52239 4.05809 5.52239 4.58363L5.52239 4.81461C5.52239 4.82309 5.52451 4.85911 5.52875 4.92268 5.5344 4.98767 5.53723 5.0463 5.53723 5.09857 5.53723 6.3658 5.34297 7.25088 4.95447 7.75381 4.61824 8.20447 4.15204 8.43192 3.55586 8.43616 2.94273 8.43616 2.46805 8.196 2.13182 7.71567 1.76168 7.18165 1.57662 6.31423 1.57662 5.1134Z" fill="#5A5758" transform="matrix(1 0 0 -1.00192 23.9823 223.247)"/><path d="M1.43675 0 1.43675 1.05955 2.49631 1.05955 2.49631 0 1.43675 0Z" fill="#5A5758" transform="matrix(1 0 0 -1.00192 31.1011 223.247)"/><path d="M0.701424 4.20431 0.701424 4.42469C0.701424 4.71572 0.707075 4.96365 0.718377 5.1685 0.729679 5.37335 0.752989 5.65024 0.788308 5.99919 0.823626 6.34814 0.886493 6.65611 0.976908 6.92312 1.06732 7.19013 1.17964 7.46561 1.31385 7.74957 1.44947 8.03495 1.63312 8.28147 1.86481 8.48914 2.0965 8.69681 2.36422 8.85575 2.66796 8.96594 2.92931 9.06766 3.22528 9.1164 3.55586 9.11216 3.80733 9.11216 4.05244 9.08108 4.29119 9.01892 4.52994 8.95817 4.7807 8.82679 5.04347 8.62476 5.30624 8.42415 5.5344 8.16845 5.72794 7.85765 5.9229 7.54684 6.08395 7.11949 6.2111 6.57559 6.33966 6.0331 6.40394 5.40655 6.40394 4.69594 6.40394 3.94436 6.37639 3.33124 6.32129 2.85656 6.2662 2.38329 6.13905 1.91426 5.93986 1.44947 5.67991 0.836341 5.33026 0.40263 4.8909 0.148337 4.45154-0.104543 4.00652-0.230983 3.55586-0.230983 3.30439-0.230983 3.05787-0.199196 2.81629-0.135623 2.57613-0.0720496 2.32466 0.059335 2.06189 0.258531 1.80053 0.457727 1.57238 0.712726 1.37742 1.02353 1.18387 1.33433 1.02282 1.7631 0.894263 2.30983 0.765704 2.85797 0.701424 3.48946 0.701424 4.20431ZM1.57662 5.1134C1.57662 5.05972 1.57873 4.99827 1.58297 4.92904 1.58721 4.86123 1.58933 4.82309 1.58933 4.81461L1.58933 4.55608C1.58933 4.03054 1.59569 3.60531 1.6084 3.28038 1.62253 2.95686 1.67904 2.57966 1.77793 2.14877 1.87682 1.71789 2.01739 1.38166 2.19963 1.14008 2.55282 0.689416 3.00489 0.464084 3.55586 0.464084 4.13508 0.464084 4.59422 0.702131 4.93328 1.17822 5.10563 1.42121 5.23914 1.76027 5.33379 2.19539 5.42844 2.63052 5.48354 3.0056 5.49908 3.32064 5.51462 3.63709 5.52239 4.05809 5.52239 4.58363L5.52239 4.81461C5.52239 4.82309 5.52451 4.85911 5.52875 4.92268 5.5344 4.98767 5.53723 5.0463 5.53723 5.09857 5.53723 6.3658 5.34297 7.25088 4.95447 7.75381 4.61824 8.20447 4.15204 8.43192 3.55586 8.43616 2.94273 8.43616 2.46805 8.196 2.13182 7.71567 1.76168 7.18165 1.57662 6.31423 1.57662 5.1134Z" fill="#5A5758" transform="matrix(1 0 0 -1.00192 35.0612 223.247)"/><path d="M0 0-3.1658 0" stroke="#5A5758" stroke-width="0.723611" stroke-linejoin="round" fill="none" transform="matrix(1 0 0 1.00192 48.5106 165.755)"/><path d="M0.701424 4.20431 0.701424 4.42469C0.701424 4.71572 0.707075 4.96365 0.718377 5.1685 0.729679 5.37335 0.752989 5.65024 0.788308 5.99919 0.823626 6.34814 0.886493 6.65611 0.976908 6.92312 1.06732 7.19013 1.17964 7.46561 1.31385 7.74957 1.44947 8.03495 1.63312 8.28147 1.86481 8.48914 2.0965 8.69681 2.36422 8.85575 2.66796 8.96594 2.92931 9.06766 3.22528 9.1164 3.55586 9.11216 3.80733 9.11216 4.05244 9.08108 4.29119 9.01892 4.52994 8.95817 4.7807 8.82679 5.04347 8.62476 5.30624 8.42415 5.5344 8.16845 5.72794 7.85765 5.9229 7.54684 6.08395 7.11949 6.2111 6.57559 6.33966 6.0331 6.40394 5.40655 6.40394 4.69594 6.40394 3.94436 6.37639 3.33124 6.32129 2.85656 6.2662 2.38329 6.13905 1.91426 5.93986 1.44947 5.67991 0.836341 5.33026 0.40263 4.8909 0.148337 4.45154-0.104543 4.00652-0.230983 3.55586-0.230983 3.30439-0.230983 3.05787-0.199196 2.81629-0.135623 2.57613-0.0720496 2.32466 0.059335 2.06189 0.258531 1.80053 0.457727 1.57238 0.712726 1.37742 1.02353 1.18387 1.33433 1.02282 1.7631 0.894263 2.30983 0.765704 2.85797 0.701424 3.48946 0.701424 4.20431ZM1.57662 5.1134C1.57662 5.05972 1.57873 4.99827 1.58297 4.92904 1.58721 4.86123 1.58933 4.82309 1.58933 4.81461L1.58933 4.55608C1.58933 4.03054 1.59569 3.60531 1.6084 3.28038 1.62253 2.95686 1.67904 2.57966 1.77793 2.14877 1.87682 1.71789 2.01739 1.38166 2.19963 1.14008 2.55282 0.689416 3.00489 0.464084 3.55586 0.464084 4.13508 0.464084 4.59422 0.702131 4.93328 1.17822 5.10563 1.42121 5.23914 1.76027 5.33379 2.19539 5.42844 2.63052 5.48354 3.0056 5.49908 3.32064 5.51462 3.63709 5.52239 4.05809 5.52239 4.58363L5.52239 4.81461C5.52239 4.82309 5.52451 4.85911 5.52875 4.92268 5.5344 4.98767 5.53723 5.0463 5.53723 5.09857 5.53723 6.3658 5.34297 7.25088 4.95447 7.75381 4.61824 8.20447 4.15204 8.43192 3.55586 8.43616 2.94273 8.43616 2.46805 8.196 2.13182 7.71567 1.76168 7.18165 1.57662 6.31423 1.57662 5.1134Z" fill="#5A5758" transform="matrix(1 0 0 -1.00192 23.9823 170.476)"/><path d="M1.43675 0 1.43675 1.05955 2.49631 1.05955 2.49631 0 1.43675 0Z" fill="#5A5758" transform="matrix(1 0 0 -1.00192 31.1011 170.476)"/><path d="M0.635732 1.09982 1.03412 1.73555C1.61193 0.896382 2.38399 0.476799 3.35031 0.476799 3.90269 0.476799 4.38867 0.651978 4.80825 1.00234 5.22784 1.35411 5.43763 1.94746 5.43763 2.78239 5.43763 3.22316 5.38324 3.60036 5.27446 3.91399 5.16709 4.22762 5.02228 4.46001 4.84004 4.61118 4.65921 4.76375 4.4805 4.87183 4.30391 4.9354 4.12731 5.00039 3.94436 5.03288 3.75506 5.03288 2.95969 5.03288 2.37269 4.69735 1.99408 4.0263L1.2312 4.0263 1.2312 8.88118 5.92714 8.88118 5.92714 8.16492 2.05977 8.16492 2.05977 5.04559C2.55847 5.49626 3.1278 5.72159 3.76777 5.72159 4.48262 5.72159 5.10069 5.43198 5.62199 4.85275 6.14329 4.27494 6.40394 3.57988 6.40394 2.76755 6.40394 1.94675 6.10656 1.2418 5.5118 0.652685 4.91845 0.0635732 4.19371-0.230983 3.33759-0.230983 2.26109-0.230983 1.36047 0.212617 0.635732 1.09982Z" fill="#5A5758" transform="matrix(1 0 0 -1.00192 35.0612 170.476)"/><path d="M0 0-3.1658 0" stroke="#5A5758" stroke-width="0.723611" stroke-linejoin="round" fill="none" transform="matrix(1 0 0 1.00192 48.5106 112.983)"/><path d="M1.42404 7.5419 1.42404 8.23061C2.49207 8.23061 3.33335 8.52446 3.9479 9.11216L4.16616 9.11216 4.16616 0.675995 5.93986 0.675995 5.93986 0 1.50245 0 1.50245 0.675995 3.28462 0.675995 3.28462 7.93393C2.75908 7.67258 2.13888 7.5419 1.42404 7.5419Z" fill="#5A5758" transform="matrix(1 0 0 -1.00192 23.9823 117.704)"/><path d="M1.43675 0 1.43675 1.05955 2.49631 1.05955 2.49631 0 1.43675 0Z" fill="#5A5758" transform="matrix(1 0 0 -1.00192 31.1011 117.704)"/><path d="M0.701424 4.20431 0.701424 4.42469C0.701424 4.71572 0.707075 4.96365 0.718377 5.1685 0.729679 5.37335 0.752989 5.65024 0.788308 5.99919 0.823626 6.34814 0.886493 6.65611 0.976908 6.92312 1.06732 7.19013 1.17964 7.46561 1.31385 7.74957 1.44947 8.03495 1.63312 8.28147 1.86481 8.48914 2.0965 8.69681 2.36422 8.85575 2.66796 8.96594 2.92931 9.06766 3.22528 9.1164 3.55586 9.11216 3.80733 9.11216 4.05244 9.08108 4.29119 9.01892 4.52994 8.95817 4.7807 8.82679 5.04347 8.62476 5.30624 8.42415 5.5344 8.16845 5.72794 7.85765 5.9229 7.54684 6.08395 7.11949 6.2111 6.57559 6.33966 6.0331 6.40394 5.40655 6.40394 4.69594 6.40394 3.94436 6.37639 3.33124 6.32129 2.85656 6.2662 2.38329 6.13905 1.91426 5.93986 1.44947 5.67991 0.836341 5.33026 0.40263 4.8909 0.148337 4.45154-0.104543 4.00652-0.230983 3.55586-0.230983 3.30439-0.230983 3.05787-0.199196 2.81629-0.135623 2.57613-0.0720496 2.32466 0.059335 2.06189 0.258531 1.80053 0.457727 1.57238 0.712726 1.37742 1.02353 1.18387 1.33433 1.02282 1.7631 0.894263 2.30983 0.765704 2.85797 0.701424 3.48946 0.701424 4.20431ZM1.57662 5.1134C1.57662 5.05972 1.57873 4.99827 1.58297 4.92904 1.58721 4.86123 1.58933 4.82309 1.58933 4.81461L1.58933 4.55608C1.58933 4.03054 1.59569 3.60531 1.6084 3.28038 1.62253 2.95686 1.67904 2.57966 1.77793 2.14877 1.87682 1.71789 2.01739 1.38166 2.19963 1.14008 2.55282 0.689416 3.00489 0.464084 3.55586 0.464084 4.13508 0.464084 4.59422 0.702131 4.93328 1.17822 5.10563 1.42121 5.23914 1.76027 5.33379 2.19539 5.42844 2.63052 5.48354 3.0056 5.49908 3.32064 5.51462 3.63709 5.52239 4.05809 5.52239 4.58363L5.52239 4.81461C5.52239 4.82309 5.52451 4.85911 5.52875 4.92268 5.5344 4.98767 5.53723 5.0463 5.53723 5.09857 5.53723 6.3658 5.34297 7.25088 4.95447 7.75381 4.61824 8.20447 4.15204 8.43192 3.55586 8.43616 2.94273 8.43616 2.46805 8.196 2.13182 7.71567 1.76168 7.18165 1.57662 6.31423 1.57662 5.1134Z" fill="#5A5758" transform="matrix(1 0 0 -1.00192 35.0612 117.704)"/><path d="M0 0-3.1658 0" stroke="#5A5758" stroke-width="0.723611" stroke-linejoin="round" fill="none" transform="matrix(1 0 0 1.00192 48.5106 60.2115)"/><path d="M1.42404 7.5419 1.42404 8.23061C2.49207 8.23061 3.33335 8.52446 3.9479 9.11216L4.16616 9.11216 4.16616 0.675995 5.93986 0.675995 5.93986 0 1.50245 0 1.50245 0.675995 3.28462 0.675995 3.28462 7.93393C2.75908 7.67258 2.13888 7.5419 1.42404 7.5419Z" fill="#5A5758" transform="matrix(1 0 0 -1.00192 23.9823 64.9324)"/><path d="M1.43675 0 1.43675 1.05955 2.49631 1.05955 2.49631 0 1.43675 0Z" fill="#5A5758" transform="matrix(1 0 0 -1.00192 31.1011 64.9324)"/><path d="M0.635732 1.09982 1.03412 1.73555C1.61193 0.896382 2.38399 0.476799 3.35031 0.476799 3.90269 0.476799 4.38867 0.651978 4.80825 1.00234 5.22784 1.35411 5.43763 1.94746 5.43763 2.78239 5.43763 3.22316 5.38324 3.60036 5.27446 3.91399 5.16709 4.22762 5.02228 4.46001 4.84004 4.61118 4.65921 4.76375 4.4805 4.87183 4.30391 4.9354 4.12731 5.00039 3.94436 5.03288 3.75506 5.03288 2.95969 5.03288 2.37269 4.69735 1.99408 4.0263L1.2312 4.0263 1.2312 8.88118 5.92714 8.88118 5.92714 8.16492 2.05977 8.16492 2.05977 5.04559C2.55847 5.49626 3.1278 5.72159 3.76777 5.72159 4.48262 5.72159 5.10069 5.43198 5.62199 4.85275 6.14329 4.27494 6.40394 3.57988 6.40394 2.76755 6.40394 1.94675 6.10656 1.2418 5.5118 0.652685 4.91845 0.0635732 4.19371-0.230983 3.33759-0.230983 2.26109-0.230983 1.36047 0.212617 0.635732 1.09982Z" fill="#5A5758" transform="matrix(1 0 0 -1.00192 35.0612 64.9324)"/><path d="M0 0-3.1658 0" stroke="#5A5758" stroke-width="0.723611" stroke-linejoin="round" fill="none" transform="matrix(1 0 0 1.00192 48.5106 7.43985)"/><path d="M0.582754 6.83412C1.03342 8.35281 1.96088 9.11216 3.36514 9.11216L3.37786 9.11216C4.25658 9.10368 4.98061 8.83738 5.54994 8.31325 6.11927 7.79054 6.40394 7.13009 6.40394 6.33189 6.40394 5.98718 6.3439 5.66367 6.22382 5.36134 6.10515 5.05901 5.91513 4.76516 5.65378 4.47979 5.39383 4.19583 5.19322 3.98816 5.05195 3.85677 4.91068 3.7268 4.68111 3.53608 4.36324 3.28462 3.93094 2.93143 3.63497 2.68632 3.47533 2.54929 3.31711 2.41225 2.651 1.81607 1.47702 0.760759L6.40394 0.760759 6.40394 0 0.701424 0 0.701424 0.722615 3.56858 3.31216C4.21843 3.8815 4.70088 4.38655 5.01592 4.82732 5.33238 5.26951 5.4906 5.76609 5.4906 6.31706 5.4906 6.9316 5.26951 7.43171 4.82732 7.81738 4.38655 8.20447 3.83488 8.39802 3.1723 8.39802 2.56765 8.39802 2.11416 8.20801 1.81184 7.82798 1.50951 7.44795 1.26793 6.91394 1.0871 6.22593L0.582754 6.83412Z" fill="#5A5758" transform="matrix(1 0 0 -1.00192 23.9823 12.1607)"/><path d="M1.43675 0 1.43675 1.05955 2.49631 1.05955 2.49631 0 1.43675 0Z" fill="#5A5758" transform="matrix(1 0 0 -1.00192 31.1011 12.1607)"/><path d="M0.701424 4.20431 0.701424 4.42469C0.701424 4.71572 0.707075 4.96365 0.718377 5.1685 0.729679 5.37335 0.752989 5.65024 0.788308 5.99919 0.823626 6.34814 0.886493 6.65611 0.976908 6.92312 1.06732 7.19013 1.17964 7.46561 1.31385 7.74957 1.44947 8.03495 1.63312 8.28147 1.86481 8.48914 2.0965 8.69681 2.36422 8.85575 2.66796 8.96594 2.92931 9.06766 3.22528 9.1164 3.55586 9.11216 3.80733 9.11216 4.05244 9.08108 4.29119 9.01892 4.52994 8.95817 4.7807 8.82679 5.04347 8.62476 5.30624 8.42415 5.5344 8.16845 5.72794 7.85765 5.9229 7.54684 6.08395 7.11949 6.2111 6.57559 6.33966 6.0331 6.40394 5.40655 6.40394 4.69594 6.40394 3.94436 6.37639 3.33124 6.32129 2.85656 6.2662 2.38329 6.13905 1.91426 5.93986 1.44947 5.67991 0.836341 5.33026 0.40263 4.8909 0.148337 4.45154-0.104543 4.00652-0.230983 3.55586-0.230983 3.30439-0.230983 3.05787-0.199196 2.81629-0.135623 2.57613-0.0720496 2.32466 0.059335 2.06189 0.258531 1.80053 0.457727 1.57238 0.712726 1.37742 1.02353 1.18387 1.33433 1.02282 1.7631 0.894263 2.30983 0.765704 2.85797 0.701424 3.48946 0.701424 4.20431ZM1.57662 5.1134C1.57662 5.05972 1.57873 4.99827 1.58297 4.92904 1.58721 4.86123 1.58933 4.82309 1.58933 4.81461L1.58933 4.55608C1.58933 4.03054 1.59569 3.60531 1.6084 3.28038 1.62253 2.95686 1.67904 2.57966 1.77793 2.14877 1.87682 1.71789 2.01739 1.38166 2.19963 1.14008 2.55282 0.689416 3.00489 0.464084 3.55586 0.464084 4.13508 0.464084 4.59422 0.702131 4.93328 1.17822 5.10563 1.42121 5.23914 1.76027 5.33379 2.19539 5.42844 2.63052 5.48354 3.0056 5.49908 3.32064 5.51462 3.63709 5.52239 4.05809 5.52239 4.58363L5.52239 4.81461C5.52239 4.82309 5.52451 4.85911 5.52875 4.92268 5.5344 4.98767 5.53723 5.0463 5.53723 5.09857 5.53723 6.3658 5.34297 7.25088 4.95447 7.75381 4.61824 8.20447 4.15204 8.43192 3.55586 8.43616 2.94273 8.43616 2.46805 8.196 2.13182 7.71567 1.76168 7.18165 1.57662 6.31423 1.57662 5.1134Z" fill="#5A5758" transform="matrix(1 0 0 -1.00192 35.0612 12.1607)"/><path d="M1.32031 0 1.32031 11.3129 5.43896 11.3129C6.50402 11.3129 7.38846 11.0899 8.09229 10.6439 8.60108 10.3216 9.00472 9.91376 9.30321 9.42023 9.60339 8.9284 9.75349 8.4035 9.75349 7.84553 9.75349 6.95515 9.38122 6.1572 8.63669 5.45167 7.89217 4.74785 6.88137 4.39594 5.60431 4.39594L3.02984 4.39594 3.02984 0 1.32031 0ZM2.9815 5.65265 5.09552 5.65265C5.36688 5.65265 5.60007 5.65773 5.79511 5.66791 5.99184 5.67809 6.25302 5.72303 6.57864 5.80274 6.90427 5.88245 7.17053 5.99354 7.37744 6.136 7.58435 6.28015 7.76582 6.49469 7.92185 6.77961 8.07787 7.06623 8.15589 7.41645 8.15589 7.83026 8.15589 8.24408 8.07787 8.59345 7.92185 8.87837 7.76582 9.16499 7.58435 9.37953 7.37744 9.52199 7.17053 9.66614 6.90681 9.77808 6.58627 9.85779 6.26574 9.9375 6.00965 9.98414 5.818 9.99771 5.62805 10.0113 5.39825 10.0181 5.12859 10.0181L2.99677 10.0181 2.9815 9.4126 2.9815 5.65265Z" fill="#5A5758" transform="matrix(6.12323e-17 -1.00192 -1 -6.13499e-17 14.0267 180.155)"/><path d="M1.05828 0 1.05828 7.6878 2.52105 7.6878 2.52105 6.02661C3.16212 7.19682 4.11356 7.79295 5.37536 7.815L5.37536 6.43109C5.08365 6.43109 4.79279 6.38954 4.50278 6.30644 4.21447 6.22503 3.91768 6.09529 3.6124 5.91722 3.30882 5.74084 3.06291 5.47627 2.87466 5.12351 2.68641 4.77075 2.59228 4.34845 2.59228 3.85662L2.59228 0 1.05828 0Z" fill="#5A5758" transform="matrix(6.12323e-17 -1.00192 -1 -6.13499e-17 14.0267 169.426)"/><path d="M1.05828 0 1.05828 7.6878 2.59228 7.6878 2.59228 0 1.05828 0ZM1.05828 9.77129 1.05828 11.2977 2.58465 11.2977 2.58465 9.77129 1.05828 9.77129Z" fill="#5A5758" transform="matrix(6.12323e-17 -1.00192 -1 -6.13499e-17 14.0267 163.787)"/><path d="M0.572388 3.85662C0.572388 4.95391 0.927692 5.90111 1.6383 6.69821 2.34891 7.49531 3.25795 7.89386 4.36541 7.89386 4.92677 7.89386 5.3779 7.84468 5.71879 7.74631 6.06137 7.64964 6.49469 7.46563 7.01874 7.19428L6.78979 5.85871C6.33358 6.15041 5.95029 6.35138 5.63993 6.46162 5.32957 6.57355 4.90473 6.62952 4.36541 6.62952 4.10593 6.62952 3.86171 6.59136 3.63275 6.51504 3.40549 6.43873 3.16976 6.30729 2.92554 6.12073 2.68132 5.93587 2.48798 5.64841 2.34552 5.25834 2.20306 4.86996 2.13183 4.39679 2.13183 3.83881 2.13183 2.87551 2.354 2.1844 2.79834 1.7655 3.24438 1.3466 3.75062 1.13714 4.31708 1.13714 5.22781 1.13714 6.12328 1.43648 7.00348 2.03516L7.11542 0.684321C6.21486 0.143309 5.28717-0.127197 4.33234-0.127197 3.24692-0.127197 2.34891 0.267114 1.6383 1.05574 0.927692 1.84606 0.572388 2.77968 0.572388 3.85662Z" fill="#5A5758" transform="matrix(6.12323e-17 -1.00192 -1 -6.13499e-17 14.0267 160.123)"/><path d="M0.468086 3.88715C0.468086 5.00648 0.824238 5.95368 1.53654 6.72874 2.25054 7.50549 3.10022 7.89386 4.08558 7.89386 4.35693 7.89386 4.6232 7.86418 4.88438 7.80482 5.14725 7.74716 5.422 7.63099 5.70861 7.4563 5.99523 7.28162 6.24115 7.0586 6.44636 6.78725 6.65326 6.51759 6.8271 6.14956 6.96787 5.68317 7.10863 5.21678 7.17901 4.67916 7.17901 4.07031L1.94103 4.07031 1.94103 3.91259C1.94103 3.10701 2.17677 2.43456 2.64825 1.89524 3.11972 1.35762 3.68618 1.08881 4.3476 1.08881 5.24986 1.08881 6.12497 1.39917 6.97295 2.01989L7.08234 0.699585C6.22419 0.148397 5.31261-0.127197 4.3476-0.127197 3.21979-0.127197 2.29125 0.270506 1.56198 1.06591 0.832718 1.86132 0.468086 2.80173 0.468086 3.88715ZM2.13183 5.03192 5.84344 5.03192C5.58396 6.11904 4.99292 6.66259 4.07031 6.66259 3.66837 6.66259 3.28508 6.51759 2.92045 6.22758 2.55751 5.93926 2.29464 5.54071 2.13183 5.03192Z" fill="#5A5758" transform="matrix(6.12323e-17 -1.00192 -1 -6.13499e-17 14.0267 152.508)"/><path d="M1.60014 0.992139C0.845438 1.74006 0.468086 2.68386 0.468086 3.82355 0.468086 4.96324 0.842894 5.924 1.59251 6.70584 2.34382 7.48768 3.2359 7.8786 4.26874 7.8786 5.34568 7.8786 6.24708 7.47157 6.97295 6.65751 7.69883 5.84514 8.06176 4.8954 8.06176 3.80829 8.06176 2.69065 7.68611 1.75532 6.93479 1.00231 6.18518 0.249307 5.29649-0.127197 4.26874-0.127197 3.24607-0.127197 2.35654 0.245915 1.60014 0.992139ZM2.03516 4.05505C2.03516 3.04765 2.23698 2.30312 2.64062 1.82146 3.03238 1.36525 3.57509 1.13714 4.26874 1.13714 4.92169 1.13714 5.4415 1.33812 5.82818 1.74006 6.27252 2.19627 6.49469 2.97811 6.49469 4.08558 6.49469 5.00818 6.28524 5.66791 5.86634 6.06477 5.44743 6.46332 4.9149 6.66259 4.26874 6.66259 2.77968 6.66259 2.03516 5.79341 2.03516 4.05505Z" fill="#5A5758" transform="matrix(6.12323e-17 -1.00192 -1 -6.13499e-17 14.0267 139.406)"/><path d="M0.452822 6.46417 0.452822 7.6878 1.5976 7.6878 1.5976 8.54511C1.5976 9.04373 1.6595 9.46093 1.78331 9.79673 1.90881 10.1342 2.16744 10.4624 2.55921 10.7812 3.09005 11.2256 3.75571 11.4478 4.55621 11.4478 4.94797 11.4478 5.39825 11.4028 5.90704 11.3129L5.90704 9.92902C5.3762 10.1156 4.9149 10.2089 4.52313 10.2089 4.15172 10.2089 3.82016 10.13 3.52845 9.97227 3.23844 9.81624 3.09344 9.55252 3.09344 9.1811L3.09344 7.6878 4.88183 7.6878 4.88183 6.46417 3.12396 6.46417 3.12396 0 1.5976 0 1.5976 6.46417 0.452822 6.46417Z" fill="#5A5758" transform="matrix(6.12323e-17 -1.00192 -1 -6.13499e-17 14.0267 130.843)"/><path d="M0.74792 0.867485 1.04047 2.53631C2.16999 1.58149 3.38175 1.10407 4.67577 1.10407 5.36942 1.10407 5.92824 1.29996 6.35223 1.69172 6.77622 2.08519 6.98822 2.53123 6.98822 3.02984 6.98822 3.45383 6.85169 3.81422 6.57864 4.11102 6.30559 4.40781 6.00201 4.62235 5.66791 4.75463 5.5034 4.81738 5.08704 4.91745 4.41883 5.05482 3.75232 5.19389 3.16976 5.39062 2.67114 5.64501 2.17253 5.89941 1.75363 6.27591 1.41443 6.77453 1.0922 7.26127 0.931084 7.78786 0.931084 8.35432 0.931084 9.19212 1.28554 9.93835 1.99445 10.593 2.70506 11.2476 3.6353 11.575 4.78516 11.575 5.89263 11.575 6.95006 11.3155 7.95746 10.7965L7.67254 9.10224C7.13153 9.5364 6.68634 9.82302 6.33697 9.96209 5.88075 10.1469 5.36348 10.2394 4.78516 10.2394 4.11186 10.2394 3.55813 10.0706 3.12396 9.73314 2.6898 9.39733 2.47271 8.99624 2.47271 8.52985 2.47271 8.15843 2.6033 7.84298 2.86448 7.5835 3.12736 7.32402 3.42076 7.13577 3.74469 7.01874 3.89902 6.96617 4.29757 6.86272 4.94034 6.70838 5.58481 6.55575 6.0105 6.44212 6.2174 6.3675 6.83643 6.13006 7.37659 5.73151 7.8379 5.17184 8.2992 4.61217 8.52985 3.95075 8.52985 3.18756 8.52985 2.28701 8.17454 1.48397 7.46394 0.778447 6.75502 0.0746224 5.8197-0.27729 4.65796-0.27729 3.30119-0.272202 1.99785 0.10939 0.74792 0.867485Z" fill="#5A5758" transform="matrix(6.12323e-17 -1.00192 -1 -6.13499e-17 14.0267 120.186)"/><path d="M0.310361 6.46417 0.310361 7.6878 1.64593 7.6878 1.64593 9.88068 3.1087 9.88068 3.1087 7.6878 5.39062 7.6878 5.39062 6.46417 3.1087 6.46417 3.1087 2.73474C3.1087 1.66968 3.39193 1.13714 3.95838 1.13714 4.38237 1.13714 4.84876 1.32794 5.35755 1.70953L5.68317 0.54186C4.86742 0.0958219 3.98806-0.127197 3.0451-0.127197 2.09028-0.127197 1.61286 0.768272 1.61286 2.55921L1.61286 6.46417 0.310361 6.46417Z" fill="#5A5758" transform="matrix(6.12323e-17 -1.00192 -1 -6.13499e-17 14.0267 110.684)"/><path d="M1.60014 0.992139C0.845438 1.74006 0.468086 2.68386 0.468086 3.82355 0.468086 4.96324 0.842894 5.924 1.59251 6.70584 2.34382 7.48768 3.2359 7.8786 4.26874 7.8786 5.34568 7.8786 6.24708 7.47157 6.97295 6.65751 7.69883 5.84514 8.06176 4.8954 8.06176 3.80829 8.06176 2.69065 7.68611 1.75532 6.93479 1.00231 6.18518 0.249307 5.29649-0.127197 4.26874-0.127197 3.24607-0.127197 2.35654 0.245915 1.60014 0.992139ZM2.03516 4.05505C2.03516 3.04765 2.23698 2.30312 2.64062 1.82146 3.03238 1.36525 3.57509 1.13714 4.26874 1.13714 4.92169 1.13714 5.4415 1.33812 5.82818 1.74006 6.27252 2.19627 6.49469 2.97811 6.49469 4.08558 6.49469 5.00818 6.28524 5.66791 5.86634 6.06477 5.44743 6.46332 4.9149 6.66259 4.26874 6.66259 2.77968 6.66259 2.03516 5.79341 2.03516 4.05505Z" fill="#5A5758" transform="matrix(6.12323e-17 -1.00192 -1 -6.13499e-17 14.0267 104.503)"/><path d="M1.05828 0 1.05828 7.6878 2.52105 7.6878 2.52105 6.02661C3.16212 7.19682 4.11356 7.79295 5.37536 7.815L5.37536 6.43109C5.08365 6.43109 4.79279 6.38954 4.50278 6.30644 4.21447 6.22503 3.91768 6.09529 3.6124 5.91722 3.30882 5.74084 3.06291 5.47627 2.87466 5.12351 2.68641 4.77075 2.59228 4.34845 2.59228 3.85662L2.59228 0 1.05828 0Z" fill="#5A5758" transform="matrix(6.12323e-17 -1.00192 -1 -6.13499e-17 14.0267 95.9401)"/><path d="M0.468086 3.88715C0.468086 5.00648 0.824238 5.95368 1.53654 6.72874 2.25054 7.50549 3.10022 7.89386 4.08558 7.89386 4.35693 7.89386 4.6232 7.86418 4.88438 7.80482 5.14725 7.74716 5.422 7.63099 5.70861 7.4563 5.99523 7.28162 6.24115 7.0586 6.44636 6.78725 6.65326 6.51759 6.8271 6.14956 6.96787 5.68317 7.10863 5.21678 7.17901 4.67916 7.17901 4.07031L1.94103 4.07031 1.94103 3.91259C1.94103 3.10701 2.17677 2.43456 2.64825 1.89524 3.11972 1.35762 3.68618 1.08881 4.3476 1.08881 5.24986 1.08881 6.12497 1.39917 6.97295 2.01989L7.08234 0.699585C6.22419 0.148397 5.31261-0.127197 4.3476-0.127197 3.21979-0.127197 2.29125 0.270506 1.56198 1.06591 0.832718 1.86132 0.468086 2.80173 0.468086 3.88715ZM2.13183 5.03192 5.84344 5.03192C5.58396 6.11904 4.99292 6.66259 4.07031 6.66259 3.66837 6.66259 3.28508 6.51759 2.92045 6.22758 2.55751 5.93926 2.29464 5.54071 2.13183 5.03192Z" fill="#5A5758" transform="matrix(6.12323e-17 -1.00192 -1 -6.13499e-17 14.0267 90.3009)"/><path d="M1.30504 0 1.30504 11.3129 3.01203 11.3129 3.01203 0 1.30504 0Z" fill="#5A5758" transform="matrix(6.12323e-17 -1.00192 -1 -6.13499e-17 14.0267 77.1983)"/><path d="M0.310361 6.46417 0.310361 7.6878 1.64593 7.6878 1.64593 9.88068 3.1087 9.88068 3.1087 7.6878 5.39062 7.6878 5.39062 6.46417 3.1087 6.46417 3.1087 2.73474C3.1087 1.66968 3.39193 1.13714 3.95838 1.13714 4.38237 1.13714 4.84876 1.32794 5.35755 1.70953L5.68317 0.54186C4.86742 0.0958219 3.98806-0.127197 3.0451-0.127197 2.09028-0.127197 1.61286 0.768272 1.61286 2.55921L1.61286 6.46417 0.310361 6.46417Z" fill="#5A5758" transform="matrix(6.12323e-17 -1.00192 -1 -6.13499e-17 14.0267 72.8493)"/><path d="M0.468086 3.88715C0.468086 5.00648 0.824238 5.95368 1.53654 6.72874 2.25054 7.50549 3.10022 7.89386 4.08558 7.89386 4.35693 7.89386 4.6232 7.86418 4.88438 7.80482 5.14725 7.74716 5.422 7.63099 5.70861 7.4563 5.99523 7.28162 6.24115 7.0586 6.44636 6.78725 6.65326 6.51759 6.8271 6.14956 6.96787 5.68317 7.10863 5.21678 7.17901 4.67916 7.17901 4.07031L1.94103 4.07031 1.94103 3.91259C1.94103 3.10701 2.17677 2.43456 2.64825 1.89524 3.11972 1.35762 3.68618 1.08881 4.3476 1.08881 5.24986 1.08881 6.12497 1.39917 6.97295 2.01989L7.08234 0.699585C6.22419 0.148397 5.31261-0.127197 4.3476-0.127197 3.21979-0.127197 2.29125 0.270506 1.56198 1.06591 0.832718 1.86132 0.468086 2.80173 0.468086 3.88715ZM2.13183 5.03192 5.84344 5.03192C5.58396 6.11904 4.99292 6.66259 4.07031 6.66259 3.66837 6.66259 3.28508 6.51759 2.92045 6.22758 2.55751 5.93926 2.29464 5.54071 2.13183 5.03192Z" fill="#5A5758" transform="matrix(6.12323e-17 -1.00192 -1 -6.13499e-17 14.0267 66.6684)"/><path d="M1.04047 0 1.04047 7.6878 2.53631 7.6878 2.53631 6.90172 2.55921 6.35223C3.13753 7.32741 3.95668 7.815 5.01666 7.815 5.20152 7.815 5.37451 7.80398 5.53562 7.78193 5.69844 7.76158 5.84175 7.73275 5.96555 7.69543 6.09105 7.65812 6.20807 7.60894 6.31662 7.54789 6.42516 7.48683 6.51759 7.43002 6.59391 7.37744 6.67192 7.32487 6.7423 7.25703 6.80505 7.17393 6.8695 7.09252 6.92123 7.02383 6.96023 6.96787 6.99924 6.9119 7.03994 6.84152 7.08234 6.75672 7.12474 6.67192 7.15103 6.60917 7.16121 6.56847 7.17308 6.52946 7.19173 6.47519 7.21717 6.40565 7.24431 6.33782 7.25788 6.29881 7.25788 6.28863 7.81415 7.30621 8.64602 7.815 9.75349 7.815 9.76027 7.815 9.76621 7.815 9.77129 7.815 10.1953 7.815 10.5608 7.74971 10.8677 7.61912 11.1747 7.49022 11.4045 7.34098 11.5571 7.17138 11.7115 7.00179 11.8327 6.77877 11.9209 6.50232 12.0091 6.22758 12.0608 5.99693 12.0761 5.81037 12.0914 5.62551 12.099 5.39825 12.099 5.12859L12.099 0 10.5345 0 10.5345 5.04719C10.5124 5.5458 10.4302 5.89347 10.2877 6.09021 10.0384 6.42431 9.58219 6.59136 8.91907 6.59136 8.50695 6.59136 8.14402 6.42007 7.83026 6.07749 7.51821 5.7366 7.36218 5.17608 7.36218 4.39594L7.36218 0 5.77984 0 5.77984 5.04719C5.76967 5.52545 5.70353 5.85701 5.58142 6.04187 5.34737 6.4082 4.89116 6.59136 4.21277 6.59136 4.2026 6.59136 4.19242 6.59136 4.18225 6.59136 3.76843 6.59136 3.4021 6.42007 3.08326 6.07749 2.76612 5.7366 2.60754 5.17608 2.60754 4.39594L2.60754 0 1.04047 0Z" fill="#5A5758" transform="matrix(6.12323e-17 -1.00192 -1 -6.13499e-17 14.0267 58.9901)"/><g><path d="M48.5106 33.7609 65.8191 39.3052 83.1276 44.8494 100.436 50.3937 117.745 55.938 135.053 61.4822 152.362 67.0265 169.67 72.5708 186.979 78.1151 204.287 83.6593 221.596 89.2036 238.904 94.7479 256.213 100.292 273.521 105.836 290.83 111.381 308.138 116.925 325.447 122.469 342.755 128.014 360.064 133.558 377.372 139.102" stroke="#0000FF" stroke-width="1.35677" stroke-linecap="square" stroke-linejoin="round" fill="none" transform="scale(1 1.00192)"/></g><g><path d="M48.5106 218.108 65.8191 217.524 83.1276 215.773 100.436 212.855 117.745 208.77 135.053 203.518 152.362 197.098 169.67 189.511 186.979 180.757 204.287 170.836 221.596 159.747 238.904 147.491 256.213 134.068 273.521 119.478 290.83 103.721 308.138 86.7962 325.447 68.7044 342.755 49.4453 360.064 29.0191 377.372 7.42559" stroke="#FF0000" stroke-width="1.35677" stroke-linecap="square" stroke-linejoin="round" fill="none" transform="scale(1 1.00192)"/></g><path d="M48.5106 218.108 48.5106 7.42559" stroke="#5A5758" stroke-width="0.723611" stroke-linecap="square" fill="none" transform="scale(1 1.00192)"/><path d="M48.5106 218.108 377.372 218.108" stroke="#5A5758" stroke-width="0.723611" stroke-linecap="square" fill="none" transform="scale(1 1.00192)"/><path d="M408.468 133.118 424.75 133.118 441.031 133.118" stroke="#0000FF" stroke-width="1.35677" stroke-linecap="square" stroke-linejoin="round" fill="none" transform="scale(1 1.00192)"/><path d="M1.5976 0 1.5976 11.3129 5.73151 11.3129C6.62189 11.3129 7.42493 11.1365 8.14062 10.7838 8.85632 10.431 9.42871 9.96972 9.85779 9.39988 10.2869 8.83003 10.615 8.2161 10.8423 7.55806 11.0712 6.90172 11.1857 6.23775 11.1857 5.56615 11.1857 4.0754 10.7244 2.81615 9.80182 1.78839 8.87922 0.76064 7.78193 0.175532 6.50996 0.0330713 6.3251 0.0110238 6.04441 0 5.66791 0L1.5976 0ZM2.71948 0.867485 5.45422 0.867485C6.15804 0.867485 6.78725 0.969243 7.34183 1.17276 7.89641 1.37627 8.3416 1.6383 8.6774 1.95884 9.0132 2.27938 9.2871 2.65418 9.49909 3.08326 9.71109 3.51404 9.85779 3.9304 9.93919 4.33234 10.0223 4.73598 10.0638 5.14725 10.0638 5.56615 10.0638 6.00032 10.0223 6.42346 9.93919 6.83558 9.85779 7.2494 9.71109 7.67847 9.49909 8.12282 9.2871 8.56886 9.0132 8.95723 8.6774 9.28794 8.3416 9.62035 7.89641 9.8951 7.34183 10.1122 6.78725 10.3293 6.15804 10.4378 5.45422 10.4378L2.71948 10.4378 2.71948 0.867485Z" fill="#5A5758" transform="matrix(1 0 0 -1.00192 454.056 139.083)"/><path d="M0.684321 3.91259C0.684321 4.97765 1.00486 5.9045 1.64593 6.69312 2.28701 7.48344 3.08496 7.8786 4.03979 7.8786 4.37219 7.8786 4.69358 7.82687 5.00394 7.72342 5.3143 7.61996 5.6323 7.44358 5.95792 7.19428 6.28355 6.94497 6.54727 6.55151 6.74909 6.01389 6.95091 5.47627 7.05182 4.82841 7.05182 4.07031L1.6612 4.07031 1.6612 3.94312C1.6612 2.95776 1.92746 2.16829 2.46 1.5747 2.99253 0.981115 3.60647 0.684321 4.30181 0.684321 5.22272 0.684321 6.09953 1.05743 6.93225 1.80366L7.01874 0.913276C6.18263 0.219627 5.27699-0.127197 4.30181-0.127197 3.30458-0.127197 2.45236 0.261178 1.74515 1.03793 1.03793 1.81468 0.684321 2.7729 0.684321 3.91259ZM1.74006 4.72156 6.16907 4.72156C6.09445 5.54919 5.84768 6.14702 5.42878 6.51504 5.01157 6.88307 4.54857 7.06708 4.03979 7.06708 3.4886 7.06708 2.99762 6.84406 2.56684 6.39802 2.13776 5.95368 1.86217 5.39486 1.74006 4.72156Z" fill="#5A5758" transform="matrix(1 0 0 -1.00192 466.195 139.083)"/><path d="M1.30504 0 1.30504 7.6878 2.31245 7.6878 2.31245 6.10547C2.48883 6.52946 2.77968 6.92038 3.18502 7.27823 3.59035 7.63608 4.11865 7.815 4.7699 7.815 5.21594 7.815 5.59329 7.75225 5.90195 7.62675 6.21231 7.50294 6.44297 7.3325 6.59391 7.11542 6.74485 6.89833 6.84576 6.72704 6.89664 6.60154 6.94751 6.47773 6.99415 6.3234 7.03655 6.13854 7.04673 6.10632 7.05182 6.08512 7.05182 6.07494 7.24855 6.51928 7.54619 6.92038 7.94474 7.27823 8.34499 7.63608 8.87158 7.815 9.52453 7.815 9.9587 7.815 10.331 7.74716 10.6413 7.61148 10.9517 7.4775 11.1823 7.32571 11.3333 7.15612 11.4842 6.98652 11.6004 6.75841 11.6818 6.4718 11.7649 6.18518 11.8115 5.95453 11.8217 5.77984 11.8319 5.60516 11.837 5.38808 11.837 5.12859L11.837 0 10.7965 0 10.7965 5.065C10.7965 5.26003 10.7906 5.41691 10.7787 5.53562 10.7685 5.65604 10.7304 5.8197 10.6642 6.02661 10.5981 6.23351 10.5056 6.39887 10.3869 6.52268 10.2682 6.64818 10.0867 6.75926 9.84252 6.85593 9.59831 6.9543 9.30151 7.00348 8.95214 7.00348 8.36364 7.00348 7.90743 6.7635 7.5835 6.28355 7.26127 5.80528 7.10015 5.17608 7.10015 4.39594L7.10015 0 6.04187 0 6.04187 5.065C6.04187 5.26003 6.03933 5.41691 6.03424 5.53562 6.02915 5.65604 5.99354 5.8197 5.92739 6.02661 5.86125 6.23351 5.76797 6.39887 5.64756 6.52268 5.52884 6.64818 5.34737 6.75926 5.10315 6.85593 4.86063 6.9543 4.56384 7.00348 4.21277 7.00348 3.62427 7.00348 3.16552 6.7635 2.8365 6.28355 2.50918 5.80528 2.34552 5.17608 2.34552 4.39594 2.34552 4.37559 2.34806 4.35439 2.35315 4.33234 2.35824 4.31199 2.36078 4.29079 2.36078 4.26874L2.36078 0 1.30504 0Z" fill="#5A5758" transform="matrix(1 0 0 -1.00192 473.795 139.083)"/><path d="M0.898013 1.87743C0.898013 2.14709 0.968395 2.40912 1.10916 2.66351 1.24993 2.91791 1.48058 3.1723 1.80111 3.42669 2.12165 3.68109 2.61009 3.88715 3.26643 4.04487 3.92446 4.20429 4.71478 4.29503 5.63738 4.31708L5.63738 5.0014C5.63738 5.70522 5.48899 6.22419 5.19219 6.55829 4.87844 6.93988 4.47819 7.13068 3.99145 7.13068 3.58781 7.13068 3.19604 7.07386 2.81615 6.96023 2.43795 6.8466 2.18694 6.75078 2.06314 6.67277 1.93933 6.59645 1.7231 6.46841 1.41443 6.28863L1.33557 7.19428C2.21578 7.66067 3.10616 7.89386 4.00671 7.89386 4.82247 7.89386 5.45931 7.64201 5.91722 7.13831 6.37682 6.63461 6.63037 6.07325 6.67786 5.45422L6.69312 4.89709 6.69312 0 5.66791 0 5.66791 1.12188C4.9997 0.289162 4.05674-0.127197 2.83904-0.127197 2.83396-0.127197 2.82548-0.127197 2.8136-0.127197L2.70421-0.127197C2.10384-0.127197 1.65272 0.0898861 1.35083 0.524053 1.04895 0.959915 0.898013 1.41104 0.898013 1.87743ZM1.90796 1.90796C1.90796 1.51619 2.0784 1.21431 2.41929 1.00231 2.76188 0.790319 3.15025 0.684321 3.58442 0.684321 3.78115 0.684321 3.98127 0.708065 4.18479 0.755552 4.39 0.803039 4.60878 0.881053 4.84113 0.989595 5.07517 1.09814 5.26597 1.27282 5.41352 1.51365 5.56276 1.75617 5.63738 2.03855 5.63738 2.36078L5.63738 3.80829C4.54009 3.79811 3.64378 3.61919 2.94843 3.27151 2.25478 2.92384 1.90796 2.46932 1.90796 1.90796Z" fill="#5A5758" transform="matrix(1 0 0 -1.00192 486.944 139.083)"/><path d="M1.30504 0 1.30504 7.6878 2.31245 7.6878 2.31245 6.10547C2.51935 6.58203 2.82802 6.98567 3.23844 7.31639 3.65056 7.6488 4.15596 7.815 4.75463 7.815 5.1888 7.815 5.56106 7.74716 5.87143 7.61148 6.18179 7.4775 6.41244 7.32232 6.56338 7.14594 6.71432 6.97126 6.83304 6.74315 6.91953 6.46162 7.00772 6.18179 7.0569 5.95453 7.06708 5.77984 7.07726 5.60516 7.08234 5.38808 7.08234 5.12859L7.08234 0 6.04187 0 6.04187 5.065C6.04187 5.26003 6.03933 5.41691 6.03424 5.53562 6.02915 5.65604 5.99354 5.8197 5.92739 6.02661 5.86125 6.23351 5.76797 6.39887 5.64756 6.52268 5.52884 6.64818 5.34737 6.75926 5.10315 6.85593 4.86063 6.9543 4.56384 7.00348 4.21277 7.00348 3.72603 7.00348 3.29526 6.80421 2.92045 6.40565 2.54734 6.0088 2.36078 5.29649 2.36078 4.26874L2.36078 0 1.30504 0Z" fill="#5A5758" transform="matrix(1 0 0 -1.00192 494.95 139.083)"/><path d="M0.74792 3.83881C0.74792 4.99037 1.05743 5.94096 1.67646 6.69058 2.29718 7.44019 3.01288 7.815 3.82355 7.815 4.69358 7.815 5.43811 7.43595 6.05713 6.67786L6.05713 11.3129 7.08234 11.3129 7.08234 0 6.04187 0 6.04187 0.684321 6.02661 1.19311C5.42793 0.312905 4.65627-0.127197 3.71162-0.127197 2.87551-0.127197 2.17253 0.26457 1.60269 1.04811 1.03284 1.83334 0.74792 2.76357 0.74792 3.83881ZM1.80366 3.83881C1.80366 3.20961 1.88846 2.67369 2.05805 2.23104 2.22765 1.78839 2.44473 1.46362 2.7093 1.25671 2.97557 1.0498 3.23335 0.902253 3.48266 0.814062 3.73197 0.727568 3.98127 0.684321 4.23058 0.684321 4.83943 0.684321 5.34483 0.948892 5.74677 1.47803 5.779 1.5323 5.81631 1.59251 5.85871 1.65865 5.90111 1.72479 5.93163 1.77059 5.95029 1.79603 5.96894 1.82316 5.9859 1.86132 6.00117 1.9105 6.01813 1.96138 6.02915 2.01565 6.03424 2.07332 6.03933 2.13267 6.04187 2.2073 6.04187 2.29718L6.04187 5.73151C6.04187 6.04526 5.87567 6.33527 5.54326 6.60154 5.21254 6.8695 4.82502 7.00348 4.38067 7.00348 4.20599 7.00348 4.02028 6.98059 3.82355 6.93479 3.62851 6.8907 3.40634 6.80081 3.15704 6.66514 2.90773 6.53116 2.68895 6.35478 2.5007 6.136 2.31245 5.91891 2.14879 5.60855 2.00972 5.20491 1.87234 4.80297 1.80366 4.3476 1.80366 3.83881Z" fill="#5A5758" transform="matrix(1 0 0 -1.00192 503.361 139.083)"/><path d="M408.468 155.553 424.75 155.553 441.031 155.553" stroke="#FF0000" stroke-width="1.35677" stroke-linecap="square" stroke-linejoin="round" fill="none" transform="scale(1 1.00192)"/><path d="M0.74792 0.867485 0.946348 1.98682C2.14879 1.09644 3.39702 0.65125 4.69104 0.65125 5.53902 0.65125 6.2174 0.884445 6.72619 1.35083 7.23498 1.81722 7.48938 2.34467 7.48938 2.93317 7.48938 3.35716 7.35115 3.75571 7.07471 4.12882 6.79997 4.50363 6.41074 4.78855 5.90704 4.98359 5.65773 5.08026 5.1888 5.19558 4.50024 5.32957 3.81168 5.46524 3.20961 5.6518 2.69404 5.88923 2.18016 6.12836 1.75363 6.49469 1.41443 6.98822 1.0922 7.44443 0.931084 7.94813 0.931084 8.49932 0.931084 9.29303 1.283 10.0036 1.98682 10.6311 2.69234 11.2604 3.62512 11.575 4.78516 11.575 5.8621 11.575 6.90342 11.3155 7.90913 10.7965L7.71833 9.67462C7.40627 9.89171 7.1629 10.0503 6.98822 10.1503 6.81353 10.2521 6.51928 10.3649 6.10547 10.4887 5.69165 10.6142 5.25155 10.6769 4.78516 10.6769 3.94905 10.6769 3.27067 10.4743 2.75001 10.0689 2.23104 9.6636 1.97156 9.18279 1.97156 8.62652 1.97156 8.24493 2.10384 7.88962 2.36841 7.56061 2.63468 7.23159 3.01118 6.97465 3.49792 6.78979 3.69466 6.72534 4.14748 6.61087 4.85639 6.44636 5.567 6.28355 6.01558 6.16483 6.20214 6.09021 6.98059 5.7985 7.56315 5.36772 7.94983 4.79788 8.33651 4.22804 8.52985 3.64378 8.52985 3.0451 8.52985 2.1649 8.16691 1.39069 7.44104 0.72248 6.71517 0.0559668 5.79341-0.27729 4.67577-0.27729 3.30713-0.272202 1.99785 0.10939 0.74792 0.867485Z" fill="#5A5758" transform="matrix(1 0 0 -1.00192 454.056 161.561)"/><path d="M1.30504 2.16235 1.30504 7.6878 2.36078 7.6878 2.36078 1.98682C2.36078 1.4899 2.45321 1.14054 2.63807 0.938716 2.82463 0.736896 3.23081 0.635986 3.85662 0.635986 4.46547 0.635986 4.98189 0.82763 5.40588 1.21092 5.82987 1.5959 6.04187 2.14115 6.04187 2.84667L6.04187 7.6878 7.08234 7.6878 7.08234 0 6.05713 0 6.05713 1.39917C5.7773 0.922604 5.37875 0.548644 4.86148 0.27729 4.34421 0.00763184 3.78624-0.127197 3.18756-0.127197 2.76357-0.127197 2.4159-0.0602067 2.14455 0.0737744 1.87489 0.209452 1.68324 0.407031 1.56961 0.666514 1.45598 0.927692 1.38306 1.16428 1.35083 1.37627 1.32031 1.58827 1.30504 1.8503 1.30504 2.16235Z" fill="#5A5758" transform="matrix(1 0 0 -1.00192 463.54 161.561)"/><path d="M1.30504-2.71948 1.30504 7.6878 2.33025 7.6878 2.33025 6.57355C3.01373 7.40118 3.83797 7.815 4.80297 7.815 5.59668 7.815 6.26743 7.43171 6.81523 6.66514 7.36472 5.90026 7.63947 4.96917 7.63947 3.87188 7.63947 2.6898 7.31639 1.72734 6.67022 0.984507 6.02406 0.243371 5.28717-0.127197 4.45954-0.127197 4.07794-0.127197 3.71586-0.0330713 3.37327 0.155181 3.03238 0.343433 2.81954 0.491829 2.73474 0.600371 2.64994 0.708913 2.52529 0.866637 2.36078 1.07354L2.36078-2.71948 1.30504-2.71948ZM2.36078 2.11402C2.36078 1.77991 2.51596 1.45768 2.82632 1.14732 3.13668 0.838654 3.51404 0.684321 3.95838 0.684321 4.6639 0.684321 5.27869 0.990443 5.80274 1.60269 6.32849 2.21493 6.59136 2.96624 6.59136 3.85662 6.59136 4.71478 6.34714 5.45083 5.85871 6.06477 5.37196 6.6804 4.79194 6.98822 4.11865 6.98822 3.55728 6.98822 3.07987 6.77113 2.68641 6.33697 2.5219 6.13006 2.42608 5.99608 2.39894 5.93502 2.3735 5.87397 2.36078 5.75101 2.36078 5.56615L2.36078 2.11402Z" fill="#5A5758" transform="matrix(1 0 0 -1.00192 471.951 161.561)"/><path d="M1.30504-2.71948 1.30504 7.6878 2.33025 7.6878 2.33025 6.57355C3.01373 7.40118 3.83797 7.815 4.80297 7.815 5.59668 7.815 6.26743 7.43171 6.81523 6.66514 7.36472 5.90026 7.63947 4.96917 7.63947 3.87188 7.63947 2.6898 7.31639 1.72734 6.67022 0.984507 6.02406 0.243371 5.28717-0.127197 4.45954-0.127197 4.07794-0.127197 3.71586-0.0330713 3.37327 0.155181 3.03238 0.343433 2.81954 0.491829 2.73474 0.600371 2.64994 0.708913 2.52529 0.866637 2.36078 1.07354L2.36078-2.71948 1.30504-2.71948ZM2.36078 2.11402C2.36078 1.77991 2.51596 1.45768 2.82632 1.14732 3.13668 0.838654 3.51404 0.684321 3.95838 0.684321 4.6639 0.684321 5.27869 0.990443 5.80274 1.60269 6.32849 2.21493 6.59136 2.96624 6.59136 3.85662 6.59136 4.71478 6.34714 5.45083 5.85871 6.06477 5.37196 6.6804 4.79194 6.98822 4.11865 6.98822 3.55728 6.98822 3.07987 6.77113 2.68641 6.33697 2.5219 6.13006 2.42608 5.99608 2.39894 5.93502 2.3735 5.87397 2.36078 5.75101 2.36078 5.56615L2.36078 2.11402Z" fill="#5A5758" transform="matrix(1 0 0 -1.00192 480.362 161.561)"/><path d="M1.30504 0 1.30504 11.3129 2.33025 11.3129 2.33025 0 1.30504 0Z" fill="#5A5758" transform="matrix(1 0 0 -1.00192 488.773 161.561)"/><path d="M0.231499 7.6878 1.28724 7.6878 2.9815 3.48266C3.44789 2.248 3.72349 1.43987 3.80829 1.05828 3.88291 1.57725 4.67492 3.78709 6.18433 7.6878L7.20954 7.6878 4.00671-0.635986C3.8846-0.948044 3.77182-1.20498 3.66837-1.4068 3.56492-1.60862 3.42415-1.83418 3.24607-2.08349 3.06969-2.3328 2.85431-2.5219 2.59991-2.65079 2.34552-2.78138 2.0589-2.84667 1.74006-2.84667 1.34829-2.84667 0.9243-2.80936 0.468086-2.73474L0.389224-1.82146C0.887837-1.95375 1.33812-2.01989 1.74006-2.01989 1.91644-2.01989 2.07671-1.98089 2.22086-1.90287 2.36672-1.82655 2.48035-1.75617 2.56175-1.69172 2.64486-1.62897 2.74068-1.48906 2.84922-1.27197 2.95776-1.05489 3.0256-0.90734 3.05273-0.829326 3.07987-0.753008 3.15449-0.563908 3.2766-0.262026 3.319-0.139917 3.3402-0.047487 3.3402 0.0152637 3.3402 0.0695345 3.30798 0.172988 3.24353 0.325625L0.231499 7.6878Z" fill="#5A5758" transform="matrix(1 0 0 -1.00192 492.43 161.561)"/></g></svg>