<svg width="4079" height="826" xmlns="http://www.w3.org/2000/svg" xmlns:xlink="http://www.w3.org/1999/xlink" xml:space="preserve" overflow="hidden"><g transform="translate(-383 -807)"><path d="M933.367 1187.4 1020.54 1187.4 1020.54 1215.44 1012.64 1215.44C1011.46 1210.82 1010.29 1207.17 1009.14 1204.48 1007.99 1201.8 1006.76 1199.76 1005.47 1198.36 1004.19 1196.96 1002.8 1195.97 1001.33 1195.38 999.848 1194.79 997.632 1194.49 994.678 1194.49L984.446 1194.49 984.446 1276.99C984.446 1280.16 984.621 1282.69 984.97 1284.57 985.319 1286.45 985.856 1287.94 986.581 1289.04 987.306 1290.14 988.287 1291 989.522 1291.62 990.757 1292.23 992.691 1292.84 995.323 1293.43L995.323 1297.38 958.504 1297.38 958.504 1293.43C960.115 1293.05 961.539 1292.65 962.774 1292.22 964.009 1291.79 965.016 1291.27 965.795 1290.65 966.574 1290.03 967.219 1289.24 967.729 1288.27 968.239 1287.31 968.642 1285.99 968.937 1284.32 969.233 1282.66 969.38 1280.22 969.38 1276.99L969.38 1194.49 959.229 1194.49C956.705 1194.49 954.623 1194.74 952.985 1195.22 951.347 1195.7 949.83 1196.71 948.433 1198.24 947.037 1199.77 945.761 1201.95 944.606 1204.77 943.451 1207.59 942.364 1211.14 941.343 1215.44L933.367 1215.44Z" fill="#FF0000" fill-rule="evenodd"/><text fill="#000000" fill-opacity="0" font-family="Arial,Arial_MSFontService,sans-serif" font-size="109.973" x="933.367" y="1283.63">T</text><path d="M1089.26 1180.96 1091.44 1187.16C1078.87 1191.3 1069.56 1199.37 1063.52 1211.37 1057.48 1223.38 1054.46 1238.46 1054.46 1256.61 1054.46 1275.41 1057.48 1290.9 1063.52 1303.1 1069.56 1315.29 1078.79 1323.45 1091.2 1327.59L1089.26 1333.79C1073.53 1329.66 1061.47 1320.75 1053.09 1307.08 1044.71 1293.42 1040.52 1276.86 1040.52 1257.42 1040.52 1238.03 1044.72 1221.47 1053.13 1207.75 1061.54 1194.02 1073.58 1185.09 1089.26 1180.96Z" fill="#00B0F0" fill-rule="evenodd"/><text fill="#000000" fill-opacity="0" font-family="Arial,Arial_MSFontService,sans-serif" font-size="152.834" x="1040.52" y="1314.69">(</text><path d="M1098.15 1220.36 1129.73 1220.36 1129.73 1224.3C1125.49 1224.95 1123.37 1226.61 1123.37 1229.3 1123.37 1230.53 1123.65 1231.77 1124.22 1233 1124.78 1234.24 1125.65 1235.61 1126.83 1237.11L1136.66 1250.89 1147.14 1237.6C1148.26 1236.15 1149.18 1234.74 1149.88 1233.37 1150.57 1232 1150.92 1230.59 1150.92 1229.14 1150.92 1227.9 1150.47 1226.88 1149.55 1226.08 1148.64 1225.27 1147.22 1224.68 1145.28 1224.3L1145.28 1220.36 1171.63 1220.36 1171.63 1224.3C1169.59 1224.89 1167.51 1226.05 1165.39 1227.77 1163.26 1229.49 1160.67 1232.25 1157.61 1236.07L1140.93 1256.53 1159.3 1281.26C1161.93 1284.81 1164.3 1287.52 1166.39 1289.4 1168.49 1291.28 1170.58 1292.62 1172.68 1293.43L1172.68 1297.38 1140.29 1297.38 1140.29 1293.43C1144.75 1292.89 1146.98 1291.23 1146.98 1288.43 1146.98 1287.31 1146.79 1286.23 1146.41 1285.21 1146.04 1284.19 1145.34 1283.01 1144.32 1281.67L1132.63 1265.39 1120.23 1281.51C1119.31 1282.69 1118.6 1283.77 1118.09 1284.77 1117.58 1285.76 1117.33 1286.88 1117.33 1288.11 1117.33 1289.56 1117.82 1290.76 1118.82 1291.7 1119.81 1292.64 1121.38 1293.21 1123.53 1293.43L1123.53 1297.38 1096.62 1297.38 1096.62 1293.43C1098.39 1292.78 1099.99 1291.98 1101.42 1291.01 1102.84 1290.05 1104.29 1288.8 1105.77 1287.27 1107.24 1285.73 1109.19 1283.49 1111.61 1280.54L1128.36 1259.75 1111.2 1236.23C1108.84 1233 1106.96 1230.67 1105.56 1229.22 1104.17 1227.77 1102.88 1226.67 1101.7 1225.91 1100.52 1225.16 1099.33 1224.63 1098.15 1224.3Z" fill="#00B0F0" fill-rule="evenodd"/><text fill="#000000" fill-opacity="0" font-family="Arial,Arial_MSFontService,sans-serif" font-size="77.0215" x="1096.62" y="1287.75">x</text><path d="M1179.64 1180.96C1195.32 1185.09 1207.37 1194.02 1215.77 1207.75 1224.18 1221.47 1228.38 1238.03 1228.38 1257.42 1228.38 1276.86 1224.19 1293.42 1215.82 1307.08 1207.44 1320.75 1195.38 1329.66 1179.64 1333.79L1177.71 1327.59C1190.11 1323.45 1199.34 1315.29 1205.38 1303.1 1211.42 1290.9 1214.45 1275.41 1214.45 1256.61 1214.45 1238.46 1211.44 1223.38 1205.42 1211.37 1199.41 1199.37 1190.09 1191.3 1177.47 1187.16Z" fill="#00B0F0" fill-rule="evenodd"/><text fill="#000000" fill-opacity="0" font-family="Arial,Arial_MSFontService,sans-serif" font-size="152.834" x="1177.47" y="1314.69">)</text><path d="M1300.99 1278.28 1400.25 1278.28 1400.25 1289 1300.99 1289ZM1300.99 1244.85 1400.25 1244.85 1400.25 1255.56 1300.99 1255.56ZM1300.99 1211.41 1400.25 1211.41 1400.25 1222.13 1300.99 1222.13Z" fill-rule="evenodd"/><text fill="#000000" fill-opacity="0" font-family="Arial,Arial_MSFontService,sans-serif" font-size="77.5854" x="1300.99" y="1279.3">≡</text><text fill="#FF0000" font-family="Georgia,Georgia_MSFontService,sans-serif" font-weight="400" font-size="165" transform="matrix(1 0 0 1 1451.7 1297)">total amount of time to get to school</text><text fill="#00B0F0" font-family="Georgia,Georgia_MSFontService,sans-serif" font-weight="400" font-size="165" transform="matrix(1 0 0 1 4078.52 1297)">, </text><text fill="#00B0F0" font-family="Georgia,Georgia_MSFontService,sans-serif" font-weight="400" font-size="165" transform="matrix(1 0 0 1 1462.58 1495)">a </text><text fill="#00B0F0" font-family="Georgia,Georgia_MSFontService,sans-serif" font-weight="400" font-size="165" transform="matrix(1 0 0 1 1585.19 1495)">function of the design variables</text><path d="M901 1156C901 1117.89 906.148 1087 912.5 1087L1072 1087C1078.35 1087 1083.5 1056.11 1083.5 1018 1083.5 1056.11 1088.65 1087 1095 1087L1254.5 1087C1260.85 1087 1266 1117.89 1266 1156" stroke="#000000" stroke-width="13.75" stroke-miterlimit="8" fill="none" fill-rule="evenodd"/><text font-family="Georgia,Georgia_MSFontService,sans-serif" font-weight="700" font-size="128" transform="matrix(1 0 0 1 460.574 970)">Objective Function</text></g></svg>