<svg width="4886" height="1101" xmlns="http://www.w3.org/2000/svg" xmlns:xlink="http://www.w3.org/1999/xlink" xml:space="preserve" overflow="hidden"><g transform="translate(1 -760)"><path d="M405.511 1161.65 410.425 1161.65 410.425 1219.26C410.425 1223.88 410.64 1227.09 411.07 1228.89 411.499 1230.69 412.318 1232.06 413.527 1233 414.735 1233.94 416.709 1234.75 419.449 1235.45L419.449 1239.4 387.867 1239.4 387.867 1235.45C389.961 1234.81 391.452 1234.24 392.338 1233.76 393.224 1233.28 393.976 1232.61 394.594 1231.75 395.211 1230.89 395.695 1229.57 396.044 1227.8 396.393 1226.03 396.568 1223.26 396.568 1219.5L396.568 1184.37C396.568 1180.94 396.514 1178.17 396.407 1176.08 396.299 1173.98 395.923 1172.3 395.279 1171.04 394.634 1169.78 393.654 1168.84 392.338 1168.22 391.022 1167.6 389.156 1167.08 386.739 1166.65L386.739 1162.38ZM480.723 1161.09C483.623 1161.09 486.215 1161.43 488.498 1162.1 490.78 1162.77 492.794 1163.8 494.54 1165.2 496.286 1166.6 497.722 1168.33 498.85 1170.4 499.978 1172.46 500.824 1174.95 501.388 1177.85 501.952 1180.75 502.234 1184.43 502.234 1188.89L502.234 1219.26C502.234 1222.96 502.342 1225.65 502.556 1227.32 502.771 1228.98 503.147 1230.27 503.684 1231.18 504.221 1232.1 505 1232.86 506.021 1233.48 507.041 1234.1 508.814 1234.75 511.338 1235.45L511.338 1239.4 479.595 1239.4 479.595 1235.45C481.69 1234.81 483.194 1234.24 484.107 1233.76 485.02 1233.28 485.785 1232.61 486.403 1231.75 487.021 1230.89 487.504 1229.56 487.853 1227.76 488.202 1225.96 488.377 1223.23 488.377 1219.58L488.377 1198.47C488.377 1194.71 488.269 1191.3 488.055 1188.24 487.84 1185.18 487.477 1182.67 486.967 1180.71 486.457 1178.75 485.839 1177.22 485.114 1176.12 484.389 1175.01 483.529 1174.07 482.536 1173.3 481.542 1172.52 480.401 1171.9 479.112 1171.44 477.823 1170.99 476.131 1170.76 474.036 1170.76 471.941 1170.76 469.954 1171.17 468.074 1172.01 466.194 1172.84 464.126 1174.28 461.87 1176.32 459.615 1178.36 457.976 1180.37 456.956 1182.36 455.935 1184.35 455.425 1186.63 455.425 1189.21L455.425 1219.26C455.425 1223.88 455.64 1227.09 456.07 1228.89 456.499 1230.69 457.318 1232.06 458.527 1233 459.735 1233.94 461.709 1234.75 464.449 1235.45L464.449 1239.4 432.867 1239.4 432.867 1235.45C434.961 1234.81 436.452 1234.24 437.338 1233.76 438.224 1233.28 438.976 1232.61 439.594 1231.75 440.211 1230.89 440.695 1229.57 441.044 1227.8 441.393 1226.03 441.568 1223.26 441.568 1219.5L441.568 1184.37C441.568 1180.94 441.514 1178.17 441.407 1176.08 441.299 1173.98 440.923 1172.3 440.279 1171.04 439.634 1169.78 438.654 1168.84 437.338 1168.22 436.022 1167.6 434.156 1167.08 431.739 1166.65L431.739 1162.38 450.591 1161.65 455.506 1161.65 454.619 1174.79 455.747 1175.11C459.722 1171.08 462.931 1168.21 465.375 1166.49 467.819 1164.77 470.29 1163.44 472.787 1162.5 475.285 1161.56 477.93 1161.09 480.723 1161.09ZM297.32 1161.09C302.691 1161.09 307.069 1162.33 310.452 1164.8 313.836 1167.27 316.173 1171.05 317.462 1176.16 321.49 1172.07 324.753 1169.07 327.251 1167.13 329.748 1165.2 332.299 1163.71 334.904 1162.66 337.509 1161.61 340.316 1161.09 343.324 1161.09 346.922 1161.09 350.024 1161.61 352.629 1162.66 355.234 1163.71 357.436 1165.32 359.235 1167.49 361.035 1169.67 362.351 1172.4 363.183 1175.67 364.016 1178.95 364.432 1183.35 364.432 1188.89L364.432 1219.26C364.432 1223.34 364.566 1226.16 364.835 1227.72 365.103 1229.28 365.493 1230.48 366.003 1231.34 366.513 1232.2 367.279 1232.94 368.299 1233.56 369.32 1234.18 371.038 1234.81 373.455 1235.45L373.455 1239.4 341.793 1239.4 341.793 1235.45C343.888 1234.81 345.391 1234.24 346.305 1233.76 347.218 1233.28 347.983 1232.61 348.601 1231.75 349.218 1230.89 349.702 1229.56 350.051 1227.76 350.4 1225.96 350.575 1223.23 350.575 1219.58L350.575 1198.47C350.575 1193.91 350.454 1190.13 350.212 1187.15 349.97 1184.17 349.594 1181.8 349.084 1180.02 348.574 1178.25 347.956 1176.85 347.231 1175.83 346.506 1174.81 345.687 1173.93 344.774 1173.17 343.861 1172.42 342.786 1171.83 341.551 1171.4 340.316 1170.97 338.678 1170.76 336.637 1170.76 334.488 1170.76 332.487 1171.19 330.634 1172.05 328.781 1172.91 326.767 1174.36 324.592 1176.4 322.417 1178.44 320.846 1180.49 319.879 1182.56 318.912 1184.63 318.429 1187.06 318.429 1189.85L318.429 1219.26C318.429 1223.34 318.563 1226.16 318.831 1227.72 319.1 1229.28 319.489 1230.48 320 1231.34 320.51 1232.2 321.275 1232.94 322.296 1233.56 323.316 1234.18 325.035 1234.81 327.452 1235.45L327.452 1239.4 295.789 1239.4 295.789 1235.45C297.884 1234.81 299.388 1234.24 300.301 1233.76 301.214 1233.28 301.98 1232.61 302.597 1231.75 303.215 1230.89 303.698 1229.56 304.047 1227.76 304.397 1225.96 304.571 1223.23 304.571 1219.58L304.571 1198.47C304.571 1193.69 304.437 1189.8 304.168 1186.79 303.9 1183.78 303.483 1181.37 302.919 1179.54 302.356 1177.71 301.63 1176.24 300.744 1175.11 299.858 1173.98 298.958 1173.12 298.045 1172.53 297.132 1171.94 296.058 1171.5 294.823 1171.2 293.587 1170.91 292.191 1170.76 290.633 1170.76 288.431 1170.76 286.363 1171.25 284.43 1172.25 282.496 1173.24 280.522 1174.68 278.508 1176.56 276.494 1178.44 274.976 1180.4 273.956 1182.44 272.935 1184.48 272.425 1186.68 272.425 1189.05L272.425 1219.26C272.425 1222.32 272.506 1224.66 272.667 1226.27 272.828 1227.88 273.083 1229.14 273.432 1230.05 273.781 1230.97 274.224 1231.71 274.762 1232.27 275.299 1232.83 276.064 1233.37 277.058 1233.88 278.051 1234.39 279.542 1234.92 281.529 1235.45L281.529 1239.4 249.947 1239.4 249.947 1235.45C251.988 1234.81 253.452 1234.24 254.338 1233.76 255.224 1233.28 255.99 1232.61 256.634 1231.75 257.279 1230.89 257.762 1229.57 258.084 1227.8 258.407 1226.03 258.568 1223.26 258.568 1219.5L258.568 1184.37C258.568 1180.94 258.514 1178.17 258.407 1176.08 258.299 1173.98 257.923 1172.3 257.279 1171.04 256.634 1169.78 255.654 1168.84 254.338 1168.22 253.022 1167.6 251.156 1167.08 248.739 1166.65L248.739 1162.38 267.591 1161.65 272.506 1161.65 271.619 1174.79 272.747 1175.11C275.97 1171.89 278.615 1169.46 280.683 1167.82 282.751 1166.18 284.752 1164.86 286.685 1163.87 288.619 1162.88 290.432 1162.16 292.124 1161.73 293.815 1161.3 295.548 1161.09 297.32 1161.09ZM396.084 1130.8 410.909 1130.8 410.909 1146.43 396.084 1146.43Z" fill="#00B050" fill-rule="evenodd"/><text fill="#000000" fill-opacity="0" font-family="Arial,Arial_MSFontService,sans-serif" font-size="108.604" x="248.739" y="1225.82">min</text><path d="M350.528 1280.7 376.251 1280.7 376.251 1284.45C374.376 1284.68 373.038 1285.08 372.237 1285.65 371.436 1286.22 371.036 1286.89 371.036 1287.67 371.036 1288.45 371.241 1289.25 371.651 1290.08 372.061 1290.9 372.716 1291.87 373.614 1293L381.348 1303.49 389.669 1293.42C390.567 1292.4 391.261 1291.45 391.749 1290.57 392.237 1289.69 392.481 1288.69 392.481 1287.56 392.481 1286.85 392.1 1286.22 391.339 1285.65 390.577 1285.08 389.415 1284.68 387.852 1284.45L387.852 1280.7 409.356 1280.7 409.356 1284.45C407.442 1284.92 405.616 1285.86 403.878 1287.26 402.139 1288.67 400.235 1290.58 398.165 1293L385.274 1308.47 399.513 1326.7C400.606 1328.14 401.632 1329.38 402.589 1330.42 403.546 1331.45 404.444 1332.32 405.284 1333.02 406.124 1333.73 406.934 1334.27 407.716 1334.67 408.497 1335.06 409.278 1335.35 410.059 1335.54L410.059 1339.29 383.985 1339.29 383.985 1335.37C385.704 1335.17 386.964 1334.78 387.764 1334.2 388.565 1333.61 388.966 1332.93 388.966 1332.15 388.966 1331.48 388.848 1330.8 388.614 1330.09 388.38 1329.39 387.891 1328.53 387.149 1327.52L378.126 1315.39 368.341 1327.4C367.598 1328.3 367.071 1329.1 366.759 1329.8 366.446 1330.5 366.29 1331.25 366.29 1332.03 366.29 1332.77 366.69 1333.46 367.491 1334.11 368.292 1334.75 369.552 1335.17 371.27 1335.37L371.27 1339.29 349.298 1339.29 349.298 1335.54C350.391 1335.15 351.368 1334.75 352.227 1334.34 353.087 1333.93 353.956 1333.39 354.835 1332.7 355.714 1332.02 356.661 1331.15 357.677 1330.09 358.692 1329.04 359.903 1327.67 361.309 1325.99L374.2 1310.58 360.958 1293.18C359.747 1291.58 358.692 1290.25 357.794 1289.2 356.895 1288.14 356.065 1287.28 355.304 1286.62 354.542 1285.95 353.78 1285.47 353.018 1285.15 352.257 1284.84 351.427 1284.61 350.528 1284.45Z" fill="#00B050" fill-rule="evenodd"/><text fill="#000000" fill-opacity="0" font-family="Arial,Arial_MSFontService,sans-serif" font-size="58.5938" x="349.298" y="1331.97">x</text><path d="M559.036 1129.43 646.208 1129.43 646.208 1157.46 638.313 1157.46C637.131 1152.85 635.963 1149.19 634.808 1146.51 633.654 1143.82 632.432 1141.78 631.143 1140.38 629.854 1138.99 628.47 1137.99 626.993 1137.4 625.516 1136.81 623.301 1136.52 620.347 1136.52L610.115 1136.52 610.115 1219.02C610.115 1222.19 610.289 1224.71 610.638 1226.59 610.988 1228.47 611.525 1229.96 612.25 1231.06 612.975 1232.16 613.955 1233.02 615.19 1233.64 616.426 1234.26 618.359 1234.86 620.991 1235.45L620.991 1239.4 584.172 1239.4 584.172 1235.45C585.784 1235.08 587.207 1234.67 588.442 1234.24 589.678 1233.81 590.685 1233.29 591.464 1232.67 592.242 1232.06 592.887 1231.26 593.397 1230.3 593.907 1229.33 594.31 1228.01 594.606 1226.35 594.901 1224.68 595.049 1222.24 595.049 1219.02L595.049 1136.52 584.897 1136.52C582.373 1136.52 580.292 1136.76 578.654 1137.24 577.015 1137.73 575.498 1138.73 574.102 1140.26 572.705 1141.79 571.429 1143.97 570.275 1146.79 569.12 1149.61 568.032 1153.17 567.012 1157.46L559.036 1157.46Z" fill="#FF0000" fill-rule="evenodd"/><text fill="#000000" fill-opacity="0" font-family="Arial,Arial_MSFontService,sans-serif" font-size="109.973" x="559.036" y="1225.65">T</text><path d="M714.932 1122.98 717.107 1129.19C704.539 1133.32 695.233 1141.39 689.191 1153.4 683.148 1165.4 680.127 1180.48 680.127 1198.63 680.127 1217.43 683.148 1232.93 689.191 1245.12 695.233 1257.31 704.458 1265.48 716.865 1269.61L714.932 1275.82C699.194 1271.68 687.136 1262.78 678.757 1249.11 670.378 1235.44 666.189 1218.88 666.189 1199.44 666.189 1180.05 670.392 1163.49 678.798 1149.77 687.203 1136.05 699.248 1127.12 714.932 1122.98Z" fill="#00B0F0" fill-rule="evenodd"/><text fill="#000000" fill-opacity="0" font-family="Arial,Arial_MSFontService,sans-serif" font-size="152.834" x="666.189" y="1256.71">(</text><path d="M723.821 1162.38 755.403 1162.38 755.403 1166.33C751.16 1166.97 749.038 1168.64 749.038 1171.32 749.038 1172.56 749.32 1173.79 749.884 1175.03 750.448 1176.26 751.321 1177.63 752.502 1179.14L762.332 1192.91 772.805 1179.62C773.933 1178.17 774.846 1176.76 775.544 1175.39 776.243 1174.02 776.592 1172.61 776.592 1171.16 776.592 1169.93 776.135 1168.9 775.222 1168.1 774.309 1167.29 772.886 1166.7 770.952 1166.33L770.952 1162.38 797.297 1162.38 797.297 1166.33C795.256 1166.92 793.175 1168.07 791.053 1169.79 788.932 1171.51 786.34 1174.28 783.279 1178.09L766.602 1198.55 784.971 1223.29C787.603 1226.83 789.966 1229.54 792.061 1231.42 794.155 1233.3 796.25 1234.65 798.345 1235.45L798.345 1239.4 765.957 1239.4 765.957 1235.45C770.415 1234.92 772.644 1233.25 772.644 1230.46 772.644 1229.33 772.456 1228.26 772.08 1227.23 771.704 1226.21 771.006 1225.03 769.985 1223.69L758.303 1207.42 745.896 1223.53C744.983 1224.71 744.271 1225.8 743.761 1226.79 743.251 1227.79 742.996 1228.9 742.996 1230.14 742.996 1231.59 743.492 1232.78 744.486 1233.72 745.48 1234.66 747.051 1235.24 749.199 1235.45L749.199 1239.4 722.29 1239.4 722.29 1235.45C724.062 1234.81 725.66 1234 727.084 1233.04 728.507 1232.07 729.957 1230.82 731.434 1229.29 732.911 1227.76 734.858 1225.52 737.275 1222.56L754.033 1201.78 736.873 1178.25C734.509 1175.03 732.629 1172.69 731.233 1171.24 729.836 1169.79 728.547 1168.69 727.366 1167.94 726.184 1167.19 725.002 1166.65 723.821 1166.33Z" fill="#00B0F0" fill-rule="evenodd"/><text fill="#000000" fill-opacity="0" font-family="Arial,Arial_MSFontService,sans-serif" font-size="77.0215" x="722.29" y="1229.77">x</text><path d="M805.309 1122.98C820.993 1127.12 833.037 1136.05 841.443 1149.77 849.849 1163.49 854.052 1180.05 854.052 1199.44 854.052 1218.88 849.862 1235.44 841.484 1249.11 833.105 1262.78 821.047 1271.68 805.309 1275.82L803.376 1269.61C815.783 1265.48 825.008 1257.31 831.05 1245.12 837.093 1232.93 840.114 1217.43 840.114 1198.63 840.114 1180.48 837.106 1165.4 831.09 1153.4 825.075 1141.39 815.756 1133.32 803.134 1129.19Z" fill="#00B0F0" fill-rule="evenodd"/><text fill="#000000" fill-opacity="0" font-family="Arial,Arial_MSFontService,sans-serif" font-size="152.834" x="803.134" y="1256.71">)</text><path d="M926.66 1220.31 1025.92 1220.31 1025.92 1231.02 926.66 1231.02ZM926.66 1186.87 1025.92 1186.87 1025.92 1197.59 926.66 1197.59ZM926.66 1153.44 1025.92 1153.44 1025.92 1164.15 926.66 1164.15Z" fill-rule="evenodd"/><text fill="#000000" fill-opacity="0" font-family="Arial,Arial_MSFontService,sans-serif" font-size="77.5854" x="926.66" y="1221.32">≡</text><text fill="#00B050" font-family="Georgia,Georgia_MSFontService,sans-serif" font-weight="400" font-size="165" transform="matrix(1 0 0 1 1077.36 1239)">minimize</text><text fill="#FF0000" font-family="Georgia,Georgia_MSFontService,sans-serif" font-weight="400" font-size="165" transform="matrix(1 0 0 1 1802.68 1239)">the total amount of time to get to school</text><text fill="#00B0F0" font-family="Georgia,Georgia_MSFontService,sans-serif" font-weight="400" font-size="165" transform="matrix(1 0 0 1 4701.63 1239)">, </text><text fill="#00B0F0" font-family="Georgia,Georgia_MSFontService,sans-serif" font-weight="400" font-size="165" transform="matrix(1 0 0 1 1067.05 1497)">a function of the design variables</text><path d="M517 1109C517 1070.89 522.148 1040 528.499 1040L688 1040C694.351 1040 699.5 1009.11 699.5 971 699.5 1009.11 704.648 1040 711 1040L870.5 1040C876.851 1040 882 1070.89 882 1109" stroke="#000000" stroke-width="13.75" stroke-miterlimit="8" fill="none" fill-rule="evenodd"/><text font-family="Georgia,Georgia_MSFontService,sans-serif" font-weight="700" font-size="128" transform="matrix(1 0 0 1 76.5841 923)">Objective Function</text><path d="M882 1311C882 1349.38 876.814 1380.5 870.417 1380.5L557.083 1380.5C550.686 1380.5 545.5 1411.62 545.5 1450 545.5 1411.62 540.314 1380.5 533.917 1380.5L220.583 1380.5C214.186 1380.5 209 1349.38 209 1311" stroke="#000000" stroke-width="13.75" stroke-miterlimit="8" fill="none" fill-rule="evenodd"/><text font-family="Georgia,Georgia_MSFontService,sans-serif" font-weight="700" font-size="128" transform="matrix(1 0 0 1 109.691 1600)">Optimization </text><text font-family="Georgia,Georgia_MSFontService,sans-serif" font-weight="700" font-size="128" transform="matrix(1 0 0 1 206.514 1754)">Statement</text></g></svg>