<svg width="4897" height="1987" xmlns="http://www.w3.org/2000/svg" xmlns:xlink="http://www.w3.org/1999/xlink" xml:space="preserve" overflow="hidden"><g transform="translate(25 -114)"><text font-family="Georgia,Georgia_MSFontService,sans-serif" font-style="italic" font-weight="700" font-size="156" transform="matrix(1 0 0 1 1228.9 313)">Cook breakfast </text><text font-family="Georgia,Georgia_MSFontService,sans-serif" font-weight="400" font-size="156" transform="matrix(1 0 0 1 2500.2 313)">= {“Eggs and Toast” : 7 minutes,</text><text font-family="Georgia,Georgia_MSFontService,sans-serif" font-weight="400" font-size="156" transform="matrix(1 0 0 1 2724.22 500)">“</text><text font-family="Georgia,Georgia_MSFontService,sans-serif" font-weight="400" font-size="156" transform="matrix(1 0 0 1 2788.38 500)">Cereal” : 2 minutes,</text><text font-family="Georgia,Georgia_MSFontService,sans-serif" font-weight="400" font-size="156" transform="matrix(1 0 0 1 2724.22 687)">“</text><text font-family="Georgia,Georgia_MSFontService,sans-serif" font-weight="400" font-size="156" transform="matrix(1 0 0 1 2788.38 687)">Pancakes” : 15 minutes}</text><text font-family="Georgia,Georgia_MSFontService,sans-serif" font-style="italic" font-weight="700" font-size="156" transform="matrix(1 0 0 1 68.9615 1049)">Outfit picked out night before</text><text font-family="Georgia,Georgia_MSFontService,sans-serif" font-weight="400" font-size="156" transform="matrix(1 0 0 1 2502.14 1049)">= {“No” : 5 minutes, </text><text font-family="Georgia,Georgia_MSFontService,sans-serif" font-weight="400" font-size="156" transform="matrix(1 0 0 1 2681.46 1236)">“Yes” : 1 minute}</text><text font-family="Georgia,Georgia_MSFontService,sans-serif" font-style="italic" font-weight="700" font-size="156" transform="matrix(1 0 0 1 553.476 1597)">Mode of transportation </text><text font-family="Georgia,Georgia_MSFontService,sans-serif" font-weight="400" font-size="156" transform="matrix(1 0 0 1 2501.97 1597)">= {“Bike” : 30 minutes, </text><text font-family="Georgia,Georgia_MSFontService,sans-serif" font-weight="400" font-size="156" transform="matrix(1 0 0 1 2708.79 1784)">“Bus” : 15 minutes, </text><text font-family="Georgia,Georgia_MSFontService,sans-serif" font-weight="400" font-size="156" transform="matrix(1 0 0 1 2708.79 1971)">“Car” : 10 minutes}</text></g></svg>